<svg xmlns="http://www.w3.org/2000/svg" viewBox="0 0 1920 1080"><defs><style>.cls-1{isolation:isolate;}.cls-2{fill:#7fcffa;}.cls-3{fill:#39baf9;}.cls-4{fill:#124d4c;}.cls-5{fill:#a6f0cd;}.cls-6{fill:#95e5bd;}.cls-7{opacity:0.3;}.cls-8{fill:#e3a565;}.cls-9{fill:#a87a4b;}.cls-10{fill:#cc945b;}.cls-11{fill:#594229;}.cls-12{fill:#7d5a36;}.cls-13{fill:#13a38e;}.cls-14{fill:#11b7a3;}.cls-15{fill:#8adbb4;}.cls-16{fill:#2abade;}.cls-17{fill:#fff;}.cls-18{fill:#545454;}.cls-19{font-size:49.96px;}.cls-19,.cls-21,.cls-39{fill:#20282b;}.cls-19,.cls-40{font-family:OpenSans-Bold, Open Sans;font-weight:700;}.cls-20{fill:#435960;}.cls-22{fill:#546b70;}.cls-23{fill:#2b2b2b;}.cls-24{fill:#292929;}.cls-25,.cls-26,.cls-27{fill:none;stroke-linecap:round;stroke-linejoin:round;}.cls-25{stroke:#435960;stroke-width:1.56px;}.cls-26,.cls-27{stroke:#e94546;stroke-width:4px;}.cls-27{stroke-dasharray:12 12;}.cls-28{fill:#020202;opacity:0.4;}.cls-28,.cls-35{mix-blend-mode:multiply;}.cls-29{fill:#666;}.cls-30{fill:#e51e2f;}.cls-31{fill:#ecf3ff;}.cls-32,.cls-35{fill:#e5e5e5;}.cls-33{fill:#b2b2b2;}.cls-34{fill:#333;opacity:0.62;}.cls-36{fill:#355059;}.cls-37{fill:#91201a;}.cls-38{fill:#d52821;}.cls-39{font-size:23.63px;font-family:OpenSans-Regular, Open Sans;}.cls-40{font-size:36.81px;fill:#e94546;}</style></defs><g class="cls-1"><g id="_157-Distance_Calculator" data-name="157-Distance Calculator"><rect class="cls-2" width="1920" height="1080"/><path class="cls-3" d="M456.4,1080H0V803.42c23.63,2.12,47.46,2.84,70.67,8,49,10.95,94.77,43.95,144.48,37,31.37-4.41,58.5-24.4,89.34-31.68s72.16,7.25,73.28,38.92c1,27-26.72,44.53-49.49,59s-46.49,41-34.3,65c9.15,18.09,32.88,21.86,53.09,23.35,33,2.42,67.36,5.08,95.8,22,9.85,5.86,19.24,14.1,22,25.23C467.42,1060.69,463.41,1071.59,456.4,1080Z"/><path class="cls-3" d="M1255.78,0c-9.34,33.06-46.17,55-71.34,81.32-36.6,38.24-54.13,95.64-100.53,121.11-36.23,19.89-84.17,16.24-114.78,44-6.86,6.22-12.85,14-21.56,17.12-7,2.48-14.63,1.56-22,.6L855.18,255c-11.47-1.49-23.77-3.37-32.13-11.36-6.13-5.86-9.19-14.15-12-22.13-2-5.56-3.93-11.14-5.72-16.77-6.95-21.79-12.62-45.77-7.06-68.53,5.35-21.86,28.09-38.2,21.32-62.2-6.36-22.55-19.38-42.77-25.31-65.6q-1.08-4.17-1.94-8.4Z"/><path class="cls-3" d="M753.74,726.46c-60.85,17.36-125.72,29.37-175.8,68-6.31,4.87-12.94,12.88-9.15,19.89,1.46,2.73,4.22,4.48,6.94,5.94,45.89,24.58,106.65-3.4,152.89,20.51,18.15,9.38,34.19,26.65,54.59,25.52,17.18-1,30.8-15.22,38.76-30.47s12.2-32.34,21.21-47c25.29-41.12,80-52.54,115.36-85.37A121.72,121.72,0,0,0,997,615.62c0-24.33-12.52-53-36.74-55.33-15.7-1.52-30.52,9.33-38.45,23-8.13,14-6.91,30.79-14.15,44.5-6.61,12.49-16.88,24.27-27,34.06-21.89,21.26-49.14,36.27-77.21,47.73A476.34,476.34,0,0,1,753.74,726.46Z"/><path class="cls-4" d="M1379,11.06,1319.56,6l.09,5.06h-.09a21.37,21.37,0,0,0,.25,9.49l.11,6.31,2.89-.06a30.08,30.08,0,0,0,13.33,10.34c9.63,3.89,19.75,2.91,29.79,5.15,17.36,3.88,32.57,16.88,49.77,19.21,10.19,1.38,29.69,1.49,35.72,7.92l-4,.45c-17.09.67-35.37.64-53.22-5.9-12.37-4.54-24.1-12.07-36.67-13.65-8.34-1.06-15.36.78-22,2.59-10.66,2.93-21.63,6-27.92,12.16s-6.56,15.91,2.52,24l-21,6.28-.2,6.3a8.48,8.48,0,0,0-.11,3.3l-.12,3.77,1.28-.56a13.53,13.53,0,0,0,1.36,2c4.39,5.26,15.67,9,20.85,6.26,2.09-1.13,2.9-3,4.12-4.67,6.18-8.39,25.27-9.9,41.33-3.3,8.1,3.34,16.66,8.67,24.28,8.05,5.94-.49,8.12-4.45,11.46-7.26s11.06-4.18,16.13-.43c8.33,6.17-6.55,10.1-7,16.76-.38,5.55,10.05,11.52,19.09,13.52s17.84,1.73,26.87,3.94c15.15,3.69,28.84,14.83,30.19,24.55a32.83,32.83,0,0,1-4.65,0L1434,151.09l-2.58-.29c-10.9-5.29-21.66-9.57-31.76-8.75-7.92.64-15.13,4.4-23.55.95-10.56-4.32-13.44-16.74-24.29-17.88-6.43-.68-8.54,3.77-11.72,6.62-3.63,3.28-9.84,4.77-15.67,6.39-17.24,4.79-32.63,11.42-45.68,19.64l-11,1.82v11l8.11-.53c17.71,9.59,38.32,18.27,53.89,14.77,6.55-1.48,11.15-5.07,18.5-5.5,17-1,37.55,14.77,54.41,13.63,16.37-1.11,12-24.12,23.4-30.76l41.64,15.58,3.66.41c3.19,3,4.58,6.15,2.21,8.32-5.47,5-21.49-2.26-31.41-1-12,1.52-8.79,13.8-16.15,19.43-11.1,8.49-39-1.36-56.19,2.07-4.67.93-8.52,2.85-13.73,3-10.9.36-24.22-6.93-34.79-6-10.15.86-12.71,8.76-21.32,11.43-6.32,1.95-15.32.89-21.42,3-6.81,2.43-8.48,8.25-11.93,12.87-7.84,10.47-26.13,15.71-30.21,27.71-2.78,8.15,1.25,18.91-6.33,24.82-4.83,3.75-13.41,4.65-19.67,7.39-9.18,4-14.67,10.4-11.23,19.2L1183,329.75c-1.53,1.82-3.13,3.68-5.93,4.65-8.2,2.8-24.81-2.52-28,3.38-2.72,5,8.13,13.73,3,17.45-1.58,1.14-4.29,1.36-6.78,1.67-21.57,2.76-33.36,14.92-48.82,23.53a211.13,211.13,0,0,1-21.61,9.91l-53,22c-3.5,1.45-7,2.94-9.39,5.17q-.25.24-.48.48c-4.68,5-3.2,12.53-3.74,19.17a15.37,15.37,0,0,1-.4,2.52L992,444v7.51a9.49,9.49,0,0,0,0,2.44V455l.18,0c1.14,5.16,6,10.82,13,14.75,6.55,3.66,15.81,6.94,17.19,11.82.54,1.9-.42,3.49-.77,5.21-1.1,5.3,3.45,11.6,7.85,17.43,10.23,13.54,21.33,27.83,39.51,38.11,1.6.9,3.32,1.85,4.81,2.86l-5,1.55v11l3.45-.41c9.61,7.26,17.09,15.6,21.42,24,2.72,5.27,6.53,12.17,14.48,13.67,3.57.66,6.61-.17,10.07,0s8.27,2.48,7.79,4.58c-.32,1.38-2.69,1.68-4.59,2.1-10.8,2.41-10.74,13.39-2,21.52s23.35,13.24,36.45,15c6.13.79,14,1.9,17,5.94,2.63,3.63-1.63,6.44-6.62,6.86s-10.83-.58-15.58.18c-8.21,1.28-11,7.58-9.09,13.87a49.48,49.48,0,0,0,10.41,19.13c-14.44.66-24.15,8.4-23.11,18.39.48,4.54,2.93,9.4,2.81,13.81-.14,5.4-4.09,9.61-8,13.63l-12.07,12.55-7,7.28c-4.12,4.29-8.38,8.65-15.11,11.17-5.35,2-12,2.7-17.55,4.52-11.92,3.92-17.74,12.61-29.12,17-15.82,6.11-42.16,4.12-49.31,15.56-4.72,7.54,5.07,23.22-8.08,24.17-15.73,1.13-10.84,17.14-18.82,25l-18.58.59.16,9.84a7.2,7.2,0,0,0,0,3.16v0h0c.76,3.41,3.5,7.27,6.69,10.65,5.26,5.58,12,11.16,13.84,17,2.83,8.71-6.14,15.44-1.47,24.23,5.75,10.82,28.32,16.56,42,14,5.35-1,14.29-1.27,16.44,3,.73,1.43,0,2.69-1,3.69-6.47,6.68-23.21,7-27.35,14.74-1.56,2.92-1.05,6.53-1.09,9.95-.16,15-11.92,27.2-31,32.18-33.31,8.71-82.16-4.28-116.43,3.39-10.16,2.28-21.26,6.64-33.09,6.49l-71.33-.92c-9.51-.12-19.95,0-24.5,4.6-2.72,2.72-2.83,6.59-4.53,9.8s-6.15,5.88-12.13,4.47c-7.39-1.75-11.1-7.86-14.54-12.69-6.38-9-17.65-17.37-30.69-22.87-8.72-3.67-18.11-6.09-26.57-10.15s-16.21-10.73-15.23-16.19,10.4-8.14,8.56-14.17v-8.06l-5.48,2.1c-4.57-2.81-11.17-4.77-17.12-5.75-.9-.15-1.78-.28-2.64-.38a131.51,131.51,0,0,0-38.82.7c-2.74.49-5.57,1.21-6.52,2.95-.72,1.32-.22,3-.09,4.59.52,6.62-5.9,11.31-14.24,13.39s-18.44,2-28.35,1.81c-14.64-.21-29.43-.44-44.51-1.86l.87-1.81L434,938.6v11.07a4.16,4.16,0,0,0,1.07,2.5c2.58,3.52,7.19,6.77,12.42,8.74,3.5,1.33,7.17,2.07,10.77,3.12,17.84,5.16,33.09,18.48,34.27,29.91.22,2.22,0,4.43,1.34,6.73,3.59,6.2,15.38,9.29,23.4,14.11,13.54,8.14,17,22.06,32.22,28.23a82.8,82.8,0,0,0,11.76,3.31,167.82,167.82,0,0,1,41,16c9.25,5.18,17.38,11.17,23.26,17.67H1920V11.06Z"/><path class="cls-4" d="M978.4,422.14c-.24-2.66-2.86-5.36-5.4-8.09a39.12,39.12,0,0,1-3.12-3.65c-4.14-5.75-3.48-12.13-10.18-17.16a62.11,62.11,0,0,0-8.33-4.65c-9.19-4.8-16.65-11-20-17.74-4.45-8.81,12.78-21.74-3.23-26.42s-29.59,2.26-36.3,6.91-40.3,11.05-54.2,13.21-9.63,10-15.43,13.56-14.11,5.58-19.12,1.22,3.15-11.7-10.88-16.27-45-6.87-53-2.94-3.33,10.77-2.85,19.36-8.31,2.07-17.88,3.41-27-2.1-12.75-6.75,8.39-12.21,16.33-13.24,16.1-6.93.62-11.22-27-1.13-43.12,2.89-32.61-3.44-15.67-6.46,20.23-.68,21.74-9.17,17.17-5.68,38.62-3.49,16.36-17.59,20.38-24.63-1.7-13.67-13.52-24.46-12.3-19.38-21.46-24.87-9-6-11.75,3.92-25.34,12.31-35.79,11.88-11.85-7.88-11.85-7.88c2.49-2.9,8.23-3.65,13.78-4s11.5-.18,16.27-1.48,8.13-4.55,6.15-8.56c-.67-1.36-1.9-2.7-2.54-4.06-2-4.23,2.38-7.35,7.86-8.23,2.72-.43,5.78-.49,8.13-1.31s3.85-2.71,2.37-4.79c-1.78-2.49-7.34-4.87-5.93-6.92.69-1,2.66-1.2,4.62-.64,5.31,1.53,11.65,3,15.7,6.3,1.59,1.29,2.72,2.77,4.49,4,4.08,2.72,9.76,2.87,14.33,2.57,3.65-.24,7.34-.63,9.85-2s3.56-3.57,4.59-5.71q5.65-11.76,11.3-23.52c.49-1,1-2.17-.81-3.5a7.57,7.57,0,0,0-3.5-1.33c-3.87-.47-6.07,1.24-9.48,1.31a13.54,13.54,0,0,1-9.33-3.85c-2-2.23-1.7-4.81.65-5.91,5.64-2.64,7.85-7.66,3.72-13.12-1.3-1.72-3.12-3.37-4.05-5.11s-.65-3.7,1.58-4.1,5.86,1,7.77.17a2.62,2.62,0,0,0,1.38-1.75q4.2-11.06,8.39-22.13c1-2.6,2-5.34.74-8.39-.94-2.32-3.12-4.73-3.12-6.92,0-3.4,5.07-4.69,8.7-6.43,5.8-2.78,8.63-7.78,7.6-13.39-1.3-7.11-8.25-14.42-13.9-21.57-12.09-15.31-18.9-31.39-19.6-46.25-.51-10.77-.76-21.35-9.8-32.4-1.92-2.35-4.09-4.65-6.21-7H0V759.69c4.43-.23,8.75-.55,11.8-2.15,3.93-2.06,4.95-5.85,8.1-8.43,5.47-4.48,16.44-4.68,26.83-3.94,36,2.56,75.05,14,108.1,31.59,12.62,6.73,28.09,15.12,39.71,12.66V780l-27-10.19c-2.9-5-4-10.19-8.3-15.08,16.36-3.48,32.41-7,50.32-8.53,19.12-1.6,40.14-.86,61.46,4.46a27.11,27.11,0,0,0,7.05.92c8.61-.2,7-5,7-8.83,0-3.71,1.7-7,0-11.1a11.19,11.19,0,0,0-4-4.63c-4.8-3.36-9.31-2.65-13.88-2.92a37.57,37.57,0,0,1-20.27-7.74,6.86,6.86,0,0,1-1.94-2.15c-2.07-4.49,11.74-3.87,9.14-8.35a26.82,26.82,0,0,1,13.13-4.52c6.47-.49,13.73.29,19.93-.57,4.78-.66,8.71-2.27,12.86-3.61a108.38,108.38,0,0,1,25.63-4.72C333,692,341,692,346.81,689.78c10.76-4.07,12.23-15,24.47-17.61,3.31-.71,7.27-.76,10-2,6.17-2.94,3-10.78,8-14.54,2.07-1.55,5.39-2.27,6.62-4.38a2.42,2.42,0,0,0,.25-1.84l-.25-7.56-17.32-2.21-17.18-9.76a159.25,159.25,0,0,1,17.36,3.79c16,4.12,31.94,8.25,47.67,13.46,5.22,1.73,10.61,3.62,15.76,3.95,6.54.42,11.47-1.75,16-3.86,2-.91,4.05-1.93,4.42-3.66a3.13,3.13,0,0,0,0-1.22v-8.18l-3-4.93a11.36,11.36,0,0,1,5.63.2c5.31,1.39,9.07,4.64,12.06,7.8a16.31,16.31,0,0,0,3,2.68c3,2,7.38,1.72,9,.16h0a1.88,1.88,0,0,0,.5-2.06c-.15-.06-.27-.14-.4-.2l.27-6.19a25.38,25.38,0,0,1,3.26-.94,7,7,0,0,1,2.51-.26,6.88,6.88,0,0,1,5.5,5.22A5.41,5.41,0,0,0,503,639c4.72,3.73,9.42.25,14.78,1.21,3.52.63,6.41,3,9.56,4.67,8.62,4.61,20.67,3.29,21.88-2.39.8-3.72-2.24-8.71,1-11.37,1.69-1.39,4.84-1.82,6.22-3.37.88-1,1-2.33,1.92-3.27,1.36-1.32,4.17-1.59,6.76-1.89,4.89-.57,9.83-1.79,13-3.88,5.88-3.9,13.46-6.58,22.1-8.1,7.15-1.25,13.88-3.07,20.88-4.81L644.69,600c19.48-4.82,41.33-9.59,65.65-3.15,6.41,1.69,13.14,4.18,19,3.92,4.19-.19,7.27-1.75,10.6-3,9.12-3.31,21.14-4,33.59-2,7.88,1.26,16.07,3.59,23.46,3.44,7.84-.16,11.9-4.91,9.55-10.43-1.53-3.61-1.1-6.54,2-8.89,3.58-2.69,8.44-4.74,10.23-8.32,1.08-2.16,1-4.8,2.87-6.58,2.28-2.16,6.92-2.6,10.78-3.57,6.61-1.67,11.27-5,15.53-8.53,11.58-9.46,12.73-28,27.8-35.11,13.35-6.29,35.28-3.44,52-6.53,3.06-.56,6.78-2.54,5.12-4.92-7.64-4.63-12.61-10.89-14.64-16.77a24.71,24.71,0,0,1,.39-16.54,26.31,26.31,0,0,1,9-13c4.67-3.49,11.13-5.74,17-8.38a91.18,91.18,0,0,0,8.32-4.22c.61-.33,1.2-.68,1.79-1a77.37,77.37,0,0,0,13.94-10.55,63.44,63.44,0,0,0,7.84-9.09C977.64,425.35,978.56,423.88,978.4,422.14Z"/><path class="cls-4" d="M377.09,684.34c-6.64.89-14.24,1.93-15.68,6.27-1.37,4.11,4.8,10.17,12,11.82,3.72.85,7.23.63,10.78.72,13.26.32,27.59,5,41.21,9.66,11.57,4,24.86,8.22,34.12,5.71,7.12-1.93,10.77-7.68,19.62-7,1.65.13,3.53.48,4.68,0,1.58-.7.85-2.55,0-4.08a97.83,97.83,0,0,0-12.49-16.75c4.92-2.54,10-5.25,11.54-9.56s-1.93-10.7-9.29-13.58c-9.44-3.7-17.83.44-27.52-.73-12.3-1.5-26.16-11.45-36.24-9.12C404,659,403.2,664,401.23,667.86c-2.07,4.07-6.91,6.35-9.78,9.94C388.45,681.57,383.84,683.43,377.09,684.34Z"/><path class="cls-5" d="M976.66,417.33a63.44,63.44,0,0,1-7.84,9.09A77.37,77.37,0,0,1,954.88,437c-.59.36-1.18.71-1.79,1a91.18,91.18,0,0,1-8.32,4.22c-5.88,2.64-12.34,4.89-17,8.38a26.31,26.31,0,0,0-9,13,24.71,24.71,0,0,0-.39,16.54c2,5.88,7,12.14,14.64,16.77,1.66,2.38-2.06,4.36-5.12,4.92-16.74,3.09-38.67.24-52,6.53-15.07,7.1-16.22,25.65-27.8,35.11-4.26,3.48-8.92,6.86-15.53,8.53-3.86,1-8.5,1.41-10.78,3.57-1.88,1.78-1.79,4.42-2.87,6.58-1.79,3.58-6.65,5.63-10.23,8.32-3.12,2.35-3.55,5.28-2,8.89,2.35,5.52-1.71,10.27-9.55,10.43-7.39.15-15.58-2.18-23.46-3.44-12.45-2-24.47-1.26-33.59,2-3.33,1.21-6.41,2.77-10.6,3-5.91.26-12.64-2.23-19-3.92-24.32-6.44-46.17-1.67-65.65,3.15l-23.62,5.84c-7,1.74-13.73,3.56-20.88,4.81-8.64,1.52-16.22,4.2-22.1,8.1-3.16,2.09-8.1,3.31-13,3.88-2.59.3-5.4.57-6.76,1.89-1,.94-1,2.28-1.92,3.27-1.38,1.55-4.53,2-6.22,3.37-3.24,2.66-.2,7.65-1,11.37-1.21,5.68-13.26,7-21.88,2.39-3.15-1.68-6-4-9.56-4.67-5.36-1-10.06,2.52-14.78-1.21a5.41,5.41,0,0,1-2.13-3.42,6.88,6.88,0,0,0-5.5-5.22,7,7,0,0,0-2.51.26c-2.24.54-4.59,1.13-5.62,2.51s-.18,3.76,2.49,4.82c1.09,3.21-5.45,4.52-9.49,1.9a16.31,16.31,0,0,1-3-2.68c-3-3.16-6.75-6.41-12.06-7.8-3.29-.86-6.55-.54-7.76,1.1-2.56,3.44,6,9,5.12,13-.37,1.73-2.44,2.75-4.42,3.66-4.54,2.11-9.47,4.28-16,3.86-5.15-.33-10.54-2.22-15.76-3.95-15.73-5.21-31.72-9.34-47.67-13.46-7.49-1.93-15.13-3.89-22.4-4.31,1.92,4.15,8.09,7.82,14.24,10.05s12.56,3.46,18.81,5.4c2.92.91,6.13,2.16,6.74,4.6a2.42,2.42,0,0,1-.25,1.84c-1.23,2.11-4.55,2.83-6.62,4.38-5,3.76-1.82,11.6-8,14.54-2.69,1.28-6.65,1.33-10,2-12.24,2.63-13.71,13.54-24.47,17.61-5.85,2.22-13.81,2.17-21.17,2.68A108.38,108.38,0,0,0,300,687.78c-4.15,1.34-8.08,3-12.86,3.61-6.2.86-13.46.08-19.93.57a26.82,26.82,0,0,0-13.13,4.52c2.6,4.48-11.21,3.86-9.14,8.35a6.86,6.86,0,0,0,1.94,2.15,37.57,37.57,0,0,0,20.27,7.74c4.57.27,9.08-.44,13.88,2.92a11.19,11.19,0,0,1,4,4.63c1.74,4.05,0,7.39,0,11.1,0,3.88,1.62,8.63-7,8.83a27.11,27.11,0,0,1-7.05-.92c-21.32-5.32-42.34-6.06-61.46-4.46-17.91,1.51-34,5-50.32,8.53,4.88,5.59,5.66,11.53,9.67,17.25s14.38,11.83,21.35,10.06c2.54,2.31,4.08,5,4.3,7.36-11.62,2.46-27.09-5.93-39.71-12.66-33.05-17.63-72.08-29-108.1-31.59-10.39-.74-21.36-.54-26.83,3.94-3.15,2.58-4.17,6.37-8.1,8.43-3.05,1.6-7.37,1.92-11.8,2.15V0H721.92c2.12,2.31,4.29,4.61,6.21,7,9,11.05,9.29,21.63,9.8,32.4.7,14.86,7.51,30.94,19.6,46.25,5.65,7.15,12.6,14.46,13.9,21.57,1,5.61-1.8,10.61-7.6,13.39-3.63,1.74-8.68,3-8.7,6.43,0,2.19,2.18,4.6,3.12,6.92,1.23,3.05.25,5.79-.74,8.39q-4.18,11.07-8.39,22.13a2.62,2.62,0,0,1-1.38,1.75c-1.91.82-5.45-.59-7.77-.17s-2.51,2.36-1.58,4.1,2.75,3.39,4.05,5.11c4.13,5.46,1.92,10.48-3.72,13.12-2.35,1.1-2.63,3.68-.65,5.91a13.54,13.54,0,0,0,9.33,3.85c3.41-.07,5.61-1.78,9.48-1.31a7.57,7.57,0,0,1,3.5,1.33c1.78,1.33,1.3,2.48.81,3.5q-5.64,11.76-11.3,23.52c-1,2.14-2.12,4.34-4.59,5.71s-6.2,1.78-9.85,2c-4.57.3-10.25.15-14.33-2.57-1.77-1.19-2.9-2.67-4.49-4-4-3.27-10.39-4.77-15.7-6.3-2-.56-3.93-.36-4.62.64-1.41,2.05,4.15,4.43,5.93,6.92,1.48,2.08,0,4-2.37,4.79s-5.41.88-8.13,1.31c-5.48.88-9.84,4-7.86,8.23.64,1.36,1.87,2.7,2.54,4.06,2,4-1.39,7.25-6.15,8.56S669.55,255.72,664,256s-11.29,1.07-13.78,4c0,0,1.39,7.46,11.85,7.88s33-1.94,35.79-11.88,2.6-9.42,11.75-3.92,9.63,14.09,21.46,24.87,17.54,17.42,13.52,24.46,1.06,26.83-20.38,24.63-37.11-5-38.62,3.49-4.79,6.14-21.74,9.17-.41,10.49,15.67,6.46,27.64-7.19,43.12-2.89S730,352.47,722,353.5s-2,8.59-16.33,13.24,3.18,8.08,12.75,6.75,18.36,5.19,17.88-3.41-5.11-15.43,2.85-19.36,39-1.63,53,2.94,5.86,11.92,10.88,16.27,13.32,2.29,19.12-1.22,1.53-11.39,15.43-13.56,47.49-8.55,54.2-13.21,20.28-11.58,36.3-6.91-1.22,17.61,3.23,26.42c3.39,6.73,10.85,12.94,20,17.74a62.11,62.11,0,0,1,8.33,4.65c6.7,5,6,11.41,10.18,17.16a39.12,39.12,0,0,0,3.12,3.65c2.54,2.73,5.16,5.43,5.4,8.09C978.56,414.48,977.64,416,976.66,417.33Z"/><polygon class="cls-4" points="484.8 710.75 484.49 701.65 469.25 693.38 469.25 684.53 483.21 679.58 483.11 668.18 446.96 678.91 361.25 681.91 361.25 692.35 449 713.64 484.8 710.75"/><path class="cls-6" d="M784,469c-27.94,12.61-61.88,7.46-88.77,22.18-14.47,7.93-25.56,21-39.71,29.45-52.92,31.74-121.9-10.21-181.93,4.07-7.64,1.82-15.3,4.57-23.11,3.79-10.3-1-18.91-8-26.86-14.6l-68.85-57.52c-29.46-24.61-65.39-50.86-102.62-41.46-3,.76-6.18,1.87-8.18,4.28-5,6,.06,15,5.08,21.06l48,58c3.76,4.54,7.75,10.22,5.89,15.81-3,9-15.94,7.26-25.19,9.38-12.61,2.9-20.43,15.36-25.61,27.22a191.92,191.92,0,0,0-15.7,87.23c.39,6.92,1.12,14.12-1.39,20.59-6.79,17.54-31,18.69-49.55,15.31s-41.11-6.87-53.06,7.67c-9.1,11.08-11.14,30.17-30.06,26.13-17.21-3.67-33.84-19.27-48.51-28.44C36.59,668.32,19.21,661.41,0,658.25V0H220.19c0,6,.16,12,2,17.61,3.16,9.62,10.94,17.13,14.52,26.61,10.21,27.07-16.91,55.65-12.75,84.29,4.68,32.25,47.25,45.66,78,34.93s53.37-36.44,78.67-57,59.58-36.89,89.74-24.56c13.37,5.47,24.23,16,37.77,21,38.26,14.14,80.59-20,119.53-19.76a12.5,12.5,0,0,1,11.88,16.56c-4.14,11.54-.92,27.23,4.47,39.3,7.74,17.35,17.63,37.86,7.59,54-15.15,24.34-58.84,11.84-75.82,34.94-11.68,15.9,1.57,42.73,21.29,43.12-14,14.54-11.34,41.55,5.28,53,16,1.64,36.07,7,38.15,22.95,2.74,21.1-28.91,30.31-35.17,50.65-4.72,15.34,7.71,31.71,22.8,37.19s31.76,3,47.61.47L766,420.94c13.5-2.16,30.17-3.05,37.83,8.27C813.3,443.21,799.39,462,784,469Z"/><path class="cls-5" d="M377.09,674.94c-6.64.89-14.24,1.93-15.68,6.27-1.37,4.12,4.8,10.17,12,11.83,3.72.84,7.23.62,10.78.71,13.26.32,27.59,5,41.21,9.66,11.57,4,24.86,8.23,34.12,5.71,7.12-1.93,10.77-7.68,19.62-7,1.65.13,3.53.48,4.68,0,1.58-.71.85-2.56,0-4.09a97.38,97.38,0,0,0-12.49-16.74c4.92-2.54,10-5.26,11.54-9.57S481,661,473.6,658.14c-9.44-3.7-17.83.44-27.52-.73-12.3-1.49-26.16-11.44-36.24-9.12-5.87,1.35-6.64,6.28-8.61,10.17-2.07,4.07-6.91,6.35-9.78,9.95C388.45,672.18,383.84,674,377.09,674.94Z"/><path class="cls-5" d="M1920,0V1080H640.89a61.14,61.14,0,0,0-13.9-9.29c-6-7.18-14.71-13.79-24.8-19.44a167.82,167.82,0,0,0-41-16,82.8,82.8,0,0,1-11.76-3.31c-15.21-6.17-18.68-20.09-32.22-28.23-8-4.82-19.81-7.91-23.4-14.11-1.34-2.3-1.12-4.51-1.34-6.73-1.18-11.43-16.43-24.75-34.27-29.92-3.6-1-7.27-1.79-10.77-3.11-5.23-2-9.84-5.22-12.42-8.74A4.18,4.18,0,0,1,434,938.6c.21-2.64,5.91-2.16,10.22-1.34,23.1,4.35,45.38,4.7,67.34,5,9.91.15,20,.27,28.35-1.81s14.76-6.76,14.24-13.38c-.13-1.58-.63-3.27.09-4.6.95-1.73,3.78-2.45,6.52-2.94a131.84,131.84,0,0,1,38.82-.71q1.29.17,2.64.39c9.54,1.58,20.76,5.67,22.6,11.71s-7.57,8.68-8.56,14.17,6.78,12.14,15.23,16.19,17.85,6.48,26.57,10.15c13,5.5,24.31,13.88,30.69,22.86,3.44,4.84,7.15,10.94,14.54,12.69,6,1.42,10.43-1.25,12.13-4.46s1.81-7.08,4.53-9.8c4.55-4.57,15-4.72,24.5-4.6l71.33.91c11.83.16,22.93-4.2,33.09-6.48,34.27-7.67,83.12,5.32,116.43-3.39,19.06-5,30.82-17.2,31-32.18,0-3.42-.47-7,1.09-10,4.14-7.78,20.88-8.06,27.35-14.75,1-1,1.69-2.25,1-3.68-2.15-4.23-11.09-4-16.44-3-13.68,2.57-36.25-3.17-42-14-4.67-8.79,4.3-15.52,1.47-24.24-1.88-5.79-8.58-11.37-13.84-16.95S945.51,848,949.57,844c2.95-2.9,9.33-3.35,13.56-5.43,12.79-6.29,4.62-26.12,22.19-27.38,13.15-1,3.36-16.64,8.08-24.17,7.15-11.44,33.49-9.45,49.31-15.56,11.38-4.4,17.2-13.09,29.12-17,5.54-1.82,12.2-2.53,17.55-4.52,6.73-2.52,11-6.88,15.11-11.18q9.54-9.9,19.07-19.83c3.87-4,7.82-8.22,8-13.62.12-4.42-2.33-9.27-2.81-13.81-1-10,8.67-17.73,23.11-18.39A49.48,49.48,0,0,1,1141.41,654c-1.91-6.29.88-12.59,9.09-13.87,4.75-.76,10.58.23,15.58-.18s9.25-3.23,6.62-6.86c-2.93-4.05-10.82-5.15-17-6-13.1-1.71-27.7-6.81-36.45-14.94s-8.81-19.12,2-21.52c1.9-.42,4.27-.72,4.59-2.1.48-2.1-4.34-4.38-7.79-4.59s-6.5.63-10.07,0c-8-1.49-11.76-8.39-14.48-13.66-4.84-9.36-13.59-18.68-24.87-26.49,4.65-.71,10-2.24,8.68-5.81-1-2.6-5-4.74-8.44-6.68-18.18-10.29-29.28-24.57-39.51-38.11-4.4-5.83-9-12.13-7.85-17.43.35-1.72,1.31-3.32.77-5.22-1.38-4.87-10.64-8.15-17.19-11.81-8.65-4.85-14-12.34-13.15-18.26a7.5,7.5,0,0,1,.21-1.07c.54,0,1.06,0,1.57,0h0c8.34-.12,12.58-5.08,13.93-10.61h0a16.76,16.76,0,0,0,.44-2.72c.54-6.64-.94-14.15,3.74-19.17q.23-.24.48-.48c2.34-2.23,5.89-3.72,9.39-5.17l53-22a211.13,211.13,0,0,0,21.61-9.91c15.46-8.62,27.25-20.77,48.82-23.53,2.49-.31,5.2-.53,6.78-1.67,5.17-3.72-5.68-12.48-3-17.45,3.21-5.9,19.82-.58,28-3.38,2.8-1,4.4-2.83,5.93-4.65l16.2-19.28c-3.44-8.81,2-15.18,11.23-19.2,6.26-2.74,14.84-3.64,19.67-7.39,7.58-5.91,3.55-16.67,6.33-24.82,4.08-12,22.37-17.24,30.21-27.72,3.45-4.61,5.12-10.43,11.93-12.86,6.1-2.16,15.1-1.1,21.42-3,8.61-2.67,11.17-10.57,21.32-11.43,10.57-.89,23.89,6.4,34.79,6,5.21-.19,9.06-2.11,13.73-3,17.22-3.43,45.09,6.41,56.19-2.07,7.36-5.63,4.12-17.91,16.15-19.43,9.92-1.26,25.94,6,31.41,1,4.82-4.41-5.92-12.88-15.82-16s-20.86-4.2-29.36-9.38c-14.38,4.73-8.34,30.63-25.73,31.82-16.86,1.14-37.46-14.64-54.41-13.64-7.35.44-12,4-18.5,5.51-18,4-42.8-8.21-62-19.32,15-11.87,34.32-21.17,56.68-27.38,5.83-1.62,12-3.11,15.67-6.39,3.18-2.86,5.29-7.3,11.72-6.63,10.85,1.15,13.73,13.57,24.29,17.89,8.42,3.45,15.63-.31,23.55-.95,24.92-2,53.87,27,79.08,25.46-1.35-9.72-15-20.86-30.19-24.55-9-2.21-17.83-1.94-26.87-3.94s-19.47-8-19.09-13.52c.45-6.66,15.33-10.59,7-16.76-5.07-3.75-12.78-2.39-16.13.43s-5.52,6.77-11.46,7.26c-7.62.62-16.18-4.71-24.28-8.05-16.06-6.61-35.15-5.09-41.33,3.3-1.22,1.64-2,3.54-4.12,4.66-5.18,2.8-16.46-1-20.85-6.25s-2.9-10.79,1.47-14.13,11.15-5,17.76-6.48c-9.58-8.15-9.28-18.26-3-24.41s17.26-9.23,27.92-12.16c6.61-1.81,13.63-3.65,22-2.59,12.57,1.58,24.3,9.11,36.67,13.64,19.33,7.09,39.17,6.54,57.45,5.74-5.72-6.71-25.65-6.8-36-8.2-17.2-2.33-32.41-15.33-49.77-19.21-10-2.24-20.16-1.26-29.79-5.16-8.7-3.51-14.47-10.21-16.22-16.15a21.23,21.23,0,0,1-.36-9.92Z"/><path class="cls-6" d="M1920,589.85V1080H974.7a56.72,56.72,0,0,1,26.43-18.26c21.13-6.74,51.53-8,54.66-29.92.89-6.22-1.13-12.45-1.53-18.72-.84-13.57,6-26.45,13.93-37.48,40-55.49,116.4-81.76,182.08-62.61,17.61,5.13,34.73,13.23,53.07,13.71s38.89-9.89,41.89-28c2.27-13.67-5.9-26.7-8.33-40.33-4.36-24.45,8.68-54-8.35-72.08-11.51-12.19-33.3-13.68-39.92-29.08-7.34-17.09,10.66-34.16,27.46-42.14a196.09,196.09,0,0,1,109.9-17c13,1.79,27.2,4.7,38.67-1.75,7.75-4.36,12.73-12.24,19.09-18.46,23-22.51,60.28-20.41,91.4-12.17s62.77,21.21,94.42,15.31c48-8.95,78.65-57.64,124.27-74.94,27.63-10.48,58.15-8.5,87.62-10.82A312.53,312.53,0,0,0,1920,589.85Z"/><polygon class="cls-7" points="284.6 423.07 252.61 423.07 250.17 420.31 245.9 420.31 232.26 416.2 231.04 414.82 221.15 414.82 219.91 413.42 196.39 408.96 195.96 408.47 196.39 407.98 219.91 403.52 221.15 402.13 231.04 402.13 232.26 400.74 245.9 396.64 250.17 396.64 252.61 393.88 252.61 393.88 284.6 393.88 286.33 395.85 361.48 395.85 363.15 393.97 407.52 393.97 420.32 408.47 407.52 422.98 363.15 422.98 361.48 421.1 286.33 421.1 284.6 423.07"/><polygon class="cls-8" points="407.52 370.38 433.8 355.2 407.52 340.03 381.23 355.2 407.52 370.38"/><polygon class="cls-9" points="381.23 407.8 407.52 422.98 407.52 370.38 381.23 355.2 381.23 407.8"/><polygon class="cls-10" points="433.8 407.8 407.52 422.98 407.52 370.38 433.8 355.2 433.8 407.8"/><polygon class="cls-11" points="427.1 363.43 427.67 361.71 428.24 362.78 428.24 383.12 427.1 383.77 427.1 363.43"/><polygon class="cls-11" points="423.89 365.28 424.46 363.55 425.03 364.63 425.03 384.97 423.89 385.62 423.89 365.28"/><polygon class="cls-11" points="419.86 367.62 420.43 365.89 420.99 366.96 420.99 387.29 419.86 387.95 419.86 367.62"/><polygon class="cls-11" points="416.65 369.46 417.22 367.73 417.8 368.81 417.8 389.15 416.65 389.8 416.65 369.46"/><polygon class="cls-11" points="427.1 388.94 427.67 387.22 428.24 388.29 428.24 408.62 427.1 409.28 427.1 388.94"/><polygon class="cls-11" points="430.56 361.43 431.14 359.71 431.7 360.77 431.7 381.11 430.56 381.77 430.56 361.43"/><polygon class="cls-11" points="430.56 386.94 431.14 385.21 431.7 386.28 431.7 406.62 430.56 407.28 430.56 386.94"/><polygon class="cls-11" points="423.89 390.79 424.46 389.06 425.03 390.13 425.03 410.47 423.89 411.13 423.89 390.79"/><polygon class="cls-11" points="419.86 393.12 420.43 391.4 420.99 392.47 420.99 412.81 419.86 413.46 419.86 393.12"/><polygon class="cls-11" points="416.65 394.97 417.22 393.25 417.8 394.31 417.8 414.65 416.65 415.31 416.65 394.97"/><polygon class="cls-11" points="413.06 371.54 413.63 369.81 414.2 370.88 414.2 391.22 413.06 391.88 413.06 371.54"/><polygon class="cls-11" points="413.06 397.04 413.63 395.31 414.2 396.39 414.2 416.72 413.06 417.38 413.06 397.04"/><polygon class="cls-11" points="409.62 373.52 410.18 371.8 410.75 372.87 410.75 393.21 409.62 393.87 409.62 373.52"/><polygon class="cls-11" points="409.62 399.03 410.18 397.31 410.75 398.38 410.75 418.72 409.62 419.38 409.62 399.03"/><polygon class="cls-11" points="387.67 363.43 387.1 361.71 386.54 362.78 386.54 383.12 387.67 383.77 387.67 363.43"/><polygon class="cls-11" points="390.88 365.28 390.31 363.55 389.74 364.63 389.74 384.97 390.88 385.62 390.88 365.28"/><polygon class="cls-11" points="394.92 367.62 394.35 365.89 393.77 366.96 393.77 387.29 394.92 387.95 394.92 367.62"/><polygon class="cls-11" points="398.12 369.46 397.55 367.73 396.98 368.81 396.98 389.15 398.12 389.8 398.12 369.46"/><polygon class="cls-11" points="387.67 388.94 387.1 387.22 386.54 388.29 386.54 408.62 387.67 409.28 387.67 388.94"/><polygon class="cls-11" points="384.2 361.43 383.63 359.71 383.07 360.77 383.07 381.11 384.2 381.77 384.2 361.43"/><polygon class="cls-11" points="384.2 386.94 383.63 385.21 383.07 386.28 383.07 406.62 384.2 407.28 384.2 386.94"/><polygon class="cls-11" points="390.88 390.79 390.31 389.06 389.74 390.13 389.74 410.47 390.88 411.13 390.88 390.79"/><polygon class="cls-11" points="394.92 393.12 394.35 391.4 393.77 392.47 393.77 412.81 394.92 413.46 394.92 393.12"/><polygon class="cls-11" points="398.12 394.97 397.55 393.25 396.98 394.31 396.98 414.65 398.12 415.31 398.12 394.97"/><polygon class="cls-11" points="401.71 371.54 401.13 369.81 400.57 370.88 400.57 391.22 401.71 391.88 401.71 371.54"/><polygon class="cls-11" points="401.71 397.04 401.13 395.31 400.57 396.39 400.57 416.72 401.71 417.38 401.71 397.04"/><polygon class="cls-11" points="405.16 373.52 404.58 371.8 404.02 372.87 404.02 393.21 405.16 393.87 405.16 373.52"/><polygon class="cls-11" points="405.16 399.03 404.58 397.31 404.02 398.38 404.02 418.72 405.16 419.38 405.16 399.03"/><polygon class="cls-8" points="407.52 273.33 430.39 260.13 407.52 246.92 384.64 260.13 407.52 273.33"/><polygon class="cls-9" points="384.64 355.34 407.52 368.55 407.52 273.33 384.64 260.13 384.64 355.34"/><polygon class="cls-12" points="388.53 357.58 403.73 366.36 403.73 280.81 388.53 272.03 388.53 357.58"/><polygon class="cls-10" points="430.39 355.34 407.52 368.55 407.52 273.33 430.39 260.13 430.39 355.34"/><polygon class="cls-12" points="409.17 367.6 409.79 367.23 409.79 273.59 409.17 273.59 409.17 367.6"/><polygon class="cls-12" points="428.31 356.54 428.93 356.18 428.93 262.55 428.31 262.55 428.31 356.54"/><polygon class="cls-12" points="405.88 367.6 405.25 367.23 405.25 273.59 405.88 273.59 405.88 367.6"/><polygon class="cls-12" points="386.74 356.54 386.11 356.18 386.11 262.55 386.74 262.55 386.74 356.54"/><polygon class="cls-9" points="426.51 357.58 411.3 366.36 411.3 280.81 426.51 272.03 426.51 357.58"/><polygon class="cls-11" points="423.82 277.33 424.39 275.6 424.95 276.67 424.95 299.08 423.82 299.74 423.82 277.33"/><polygon class="cls-11" points="420.62 279.18 421.19 277.45 421.75 278.52 421.75 300.93 420.62 301.59 420.62 279.18"/><polygon class="cls-11" points="416.58 281.51 417.14 279.78 417.72 280.85 417.72 303.26 416.58 303.92 416.58 281.51"/><polygon class="cls-11" points="413.38 283.36 413.95 281.63 414.52 282.7 414.52 305.11 413.38 305.77 413.38 283.36"/><polygon class="cls-11" points="423.82 306.67 424.39 304.94 424.95 306.01 424.95 328.42 423.82 329.08 423.82 306.67"/><polygon class="cls-11" points="420.62 308.51 421.19 306.79 421.75 307.86 421.75 330.27 420.62 330.93 420.62 308.51"/><polygon class="cls-11" points="416.58 310.84 417.14 309.12 417.72 310.19 417.72 332.61 416.58 333.26 416.58 310.84"/><polygon class="cls-11" points="413.38 312.7 413.95 310.97 414.52 312.04 414.52 334.45 413.38 335.11 413.38 312.7"/><polygon class="cls-11" points="423.82 335.6 424.39 333.87 424.95 334.93 424.95 357.35 423.82 358 423.82 335.6"/><polygon class="cls-11" points="420.62 337.44 421.19 335.71 421.75 336.79 421.75 359.19 420.62 359.85 420.62 337.44"/><polygon class="cls-11" points="416.58 339.77 417.14 338.04 417.72 339.12 417.72 361.52 416.58 362.19 416.58 339.77"/><polygon class="cls-11" points="413.38 341.62 413.95 339.89 414.52 340.96 414.52 363.38 413.38 364.03 413.38 341.62"/><polygon class="cls-11" points="391.63 277.33 391.06 275.6 390.5 276.67 390.5 299.08 391.63 299.74 391.63 277.33"/><polygon class="cls-11" points="394.84 279.18 394.27 277.45 393.7 278.52 393.7 300.93 394.84 301.59 394.84 279.18"/><polygon class="cls-11" points="398.88 281.51 398.31 279.78 397.74 280.85 397.74 303.26 398.88 303.92 398.88 281.51"/><polygon class="cls-11" points="402.07 283.36 401.51 281.63 400.94 282.7 400.94 305.11 402.07 305.77 402.07 283.36"/><polygon class="cls-11" points="391.63 306.67 391.06 304.94 390.5 306.01 390.5 328.42 391.63 329.08 391.63 306.67"/><polygon class="cls-11" points="394.84 308.51 394.27 306.79 393.7 307.86 393.7 330.27 394.84 330.93 394.84 308.51"/><polygon class="cls-11" points="398.88 310.84 398.31 309.12 397.74 310.19 397.74 332.61 398.88 333.26 398.88 310.84"/><polygon class="cls-11" points="402.07 312.7 401.51 310.97 400.94 312.04 400.94 334.45 402.07 335.11 402.07 312.7"/><polygon class="cls-11" points="391.63 335.6 391.06 333.87 390.5 334.93 390.5 357.35 391.63 358 391.63 335.6"/><polygon class="cls-11" points="394.84 337.44 394.27 335.71 393.7 336.79 393.7 359.19 394.84 359.85 394.84 337.44"/><polygon class="cls-11" points="398.88 339.77 398.31 338.04 397.74 339.12 397.74 361.52 398.88 362.19 398.88 339.77"/><polygon class="cls-11" points="402.07 341.62 401.51 339.89 400.94 340.96 400.94 363.38 402.07 364.03 402.07 341.62"/><polygon class="cls-8" points="407.52 239.46 433.96 224.19 407.52 208.91 381.07 224.19 407.52 239.46"/><polygon class="cls-9" points="381.07 262.1 407.52 277.37 407.52 239.46 381.07 224.19 381.07 262.1"/><polygon class="cls-10" points="433.96 262.1 407.52 277.37 407.52 239.46 433.96 224.19 433.96 262.1"/><polygon class="cls-8" points="412.39 242.72 432.64 231.02 430.66 229.8 410.4 241.5 412.39 242.72"/><polygon class="cls-9" points="410.4 270.54 412.39 271.75 412.39 242.72 410.4 241.5 410.4 270.54"/><polygon class="cls-10" points="432.64 260.06 412.39 271.75 412.39 242.72 432.64 231.02 432.64 260.06"/><polygon class="cls-8" points="402.64 242.72 382.39 231.02 384.38 229.8 404.63 241.5 402.64 242.72"/><polygon class="cls-10" points="404.63 270.54 402.64 271.75 402.64 242.72 404.63 241.5 404.63 270.54"/><polygon class="cls-9" points="382.39 260.06 402.64 271.75 402.64 242.72 382.39 231.02 382.39 260.06"/><polygon class="cls-8" points="407.52 228.62 428.96 216.24 407.52 203.85 386.07 216.24 407.52 228.62"/><polygon class="cls-13" points="407.52 228.62 407.52 208.15 393.51 200.06 386.07 216.24 407.52 228.62"/><polygon class="cls-14" points="407.52 228.62 428.96 216.24 421.53 200.06 407.52 208.15 407.52 228.62"/><polygon class="cls-15" points="407.52 208.15 421.53 200.06 407.52 191.97 393.51 200.06 407.52 208.15"/><polygon class="cls-8" points="407.52 193.53 419.01 186.9 407.52 180.25 396.02 186.9 407.52 193.53"/><polygon class="cls-16" points="407.52 192.31 416.9 186.9 407.52 181.47 398.13 186.9 407.52 192.31"/><polygon class="cls-13" points="407.52 192.31 407.52 158.07 406.63 157.55 398.13 186.9 407.52 192.31"/><polygon class="cls-14" points="407.52 192.31 416.9 186.9 408.41 157.55 407.52 158.07 407.52 192.31"/><polygon class="cls-15" points="407.52 158.07 408.41 157.55 407.52 157.04 406.63 157.55 407.52 158.07"/><polygon class="cls-9" points="396.02 200.06 407.52 206.7 407.52 193.53 396.02 186.9 396.02 200.06"/><polygon class="cls-10" points="419.01 200.06 407.52 206.7 407.52 193.53 419.01 186.9 419.01 200.06"/><polygon class="cls-10" points="428.96 224.22 407.52 236.6 407.52 228.62 428.96 216.24 428.96 224.22"/><polygon class="cls-9" points="386.07 224.22 407.52 236.6 407.52 228.62 386.07 216.24 386.07 224.22"/><path class="cls-9" d="M415.15,262.17c1.68,1.61,4.36,1.72,7.37,0,5.1-2.94,9.23-10.1,9.23-16,0-3-1.1-5.13-2.85-6.06a7.23,7.23,0,0,1,1.85,5.35c0,5.89-4.13,13.05-9.22,16C419.05,262.87,416.81,263,415.15,262.17Z"/><path class="cls-17" d="M413.29,256.82a7.17,7.17,0,0,0,1.86,5.35c1.66.87,3.9.7,6.38-.73,5.09-2.94,9.22-10.1,9.22-16a7.23,7.23,0,0,0-1.85-5.35c-1.66-.87-3.91-.69-6.38.73C417.42,243.77,413.29,250.94,413.29,256.82Z"/><path d="M421.51,251.94c0,.75.52,1.06,1.17.68a2.57,2.57,0,0,0,1.17-2c0-.74-.52-1.05-1.17-.68A2.61,2.61,0,0,0,421.51,251.94Z"/><path d="M422.9,244.16l-.45.26a.76.76,0,0,0-.34.6v6.16c0,.23.15.33.34.21l.45-.26a.76.76,0,0,0,.36-.6v-6.17C423.26,244.14,423.1,244.05,422.9,244.16Z"/><path d="M415.17,255.51v.11c0,.25.17.35.39.23l7.25-4.19a.86.86,0,0,0,.39-.68v-.12c0-.25-.17-.35-.39-.23l-7.25,4.19A.87.87,0,0,0,415.17,255.51Z"/><path class="cls-18" d="M422.28,251.5c0,.25.17.36.4.24a.92.92,0,0,0,.41-.71c0-.26-.19-.36-.41-.23A.86.86,0,0,0,422.28,251.5Z"/><path class="cls-8" d="M399.75,262.17c-1.68,1.61-4.36,1.72-7.36,0-5.11-2.94-9.24-10.1-9.24-16,0-3,1.1-5.13,2.85-6.06a7.18,7.18,0,0,0-1.85,5.35c0,5.89,4.14,13.05,9.23,16C395.85,262.87,398.1,263,399.75,262.17Z"/><path class="cls-17" d="M401.62,256.82a7.13,7.13,0,0,1-1.87,5.35c-1.65.87-3.9.7-6.37-.73-5.09-2.94-9.23-10.1-9.23-16A7.18,7.18,0,0,1,386,240.1c1.67-.87,3.91-.69,6.39.73C397.49,243.77,401.62,250.94,401.62,256.82Z"/><path d="M392.11,251a2.62,2.62,0,0,0,1.18,2c.65.37,1.18.07,1.18-.68a2.62,2.62,0,0,0-1.18-2C392.64,250,392.11,250.29,392.11,251Z"/><path d="M393.51,244.87l-.44-.25c-.19-.12-.36,0-.36.2V251a.8.8,0,0,0,.36.61l.44.25c.2.11.36,0,.36-.2v-6.17A.78.78,0,0,0,393.51,244.87Z"/><path d="M385.78,247.28v.11a.87.87,0,0,0,.39.69l7.25,4.19c.22.12.39,0,.39-.23v-.11a.88.88,0,0,0-.39-.69l-7.25-4.18C386,246.93,385.78,247,385.78,247.28Z"/><path class="cls-18" d="M392.9,251.49a.9.9,0,0,0,.39.7c.23.13.41,0,.41-.23a.9.9,0,0,0-.41-.71C393.07,251.12,392.9,251.23,392.9,251.49Z"/><polygon class="cls-11" points="416.57 192.29 417.13 190.56 417.7 191.63 417.7 199.41 416.57 200.06 416.57 192.29"/><polygon class="cls-11" points="414.13 193.72 414.69 191.99 415.26 193.06 415.26 200.84 414.13 201.5 414.13 193.72"/><polygon class="cls-11" points="411.69 195.16 412.26 193.43 412.83 194.5 412.83 202.28 411.69 202.93 411.69 195.16"/><polygon class="cls-11" points="409.25 196.59 409.82 194.86 410.39 195.93 410.39 203.71 409.25 204.36 409.25 196.59"/><polygon class="cls-11" points="426.26 220.18 426.82 218.46 427.39 219.53 427.39 223.98 426.26 224.64 426.26 220.18"/><polygon class="cls-11" points="423.82 221.62 424.39 219.89 424.95 220.96 424.95 225.42 423.82 226.08 423.82 221.62"/><polygon class="cls-11" points="421.38 223.05 421.95 221.33 422.52 222.4 422.52 226.85 421.38 227.51 421.38 223.05"/><polygon class="cls-11" points="418.94 224.48 419.51 222.75 420.08 223.83 420.08 228.28 418.94 228.94 418.94 224.48"/><polygon class="cls-11" points="416.51 225.87 417.08 224.15 417.64 225.22 417.64 229.67 416.51 230.33 416.51 225.87"/><polygon class="cls-11" points="414.07 227.28 414.64 225.54 415.21 226.62 415.21 231.07 414.07 231.73 414.07 227.28"/><polygon class="cls-11" points="411.63 228.69 412.2 226.96 412.76 228.03 412.76 232.5 411.63 233.14 411.63 228.69"/><polygon class="cls-11" points="409.19 230.09 409.76 228.36 410.33 229.43 410.33 233.89 409.19 234.54 409.19 230.09"/><polygon class="cls-11" points="388.67 220.18 388.1 218.46 387.53 219.53 387.53 223.98 388.67 224.64 388.67 220.18"/><polygon class="cls-11" points="391.11 221.62 390.54 219.89 389.97 220.96 389.97 225.42 391.11 226.08 391.11 221.62"/><polygon class="cls-11" points="393.54 223.05 392.98 221.33 392.4 222.4 392.4 226.85 393.54 227.51 393.54 223.05"/><polygon class="cls-11" points="395.99 224.48 395.41 222.75 394.84 223.83 394.84 228.28 395.99 228.94 395.99 224.48"/><polygon class="cls-11" points="398.42 225.87 397.85 224.15 397.29 225.22 397.29 229.67 398.42 230.33 398.42 225.87"/><polygon class="cls-11" points="400.86 227.28 400.29 225.54 399.72 226.62 399.72 231.07 400.86 231.73 400.86 227.28"/><polygon class="cls-11" points="403.3 228.69 402.73 226.96 402.16 228.03 402.16 232.5 403.3 233.14 403.3 228.69"/><polygon class="cls-11" points="405.73 230.09 405.17 228.36 404.6 229.43 404.6 233.89 405.73 234.54 405.73 230.09"/><polygon class="cls-11" points="398.42 192.29 397.85 190.56 397.29 191.63 397.29 199.41 398.42 200.06 398.42 192.29"/><polygon class="cls-11" points="400.86 193.72 400.29 191.99 399.72 193.06 399.72 200.84 400.86 201.5 400.86 193.72"/><polygon class="cls-11" points="403.3 195.16 402.73 193.43 402.16 194.5 402.16 202.28 403.3 202.93 403.3 195.16"/><polygon class="cls-11" points="405.73 196.59 405.17 194.86 404.6 195.93 404.6 203.71 405.73 204.36 405.73 196.59"/><text class="cls-19" transform="translate(384.38 478.43)">LONDON</text><text class="cls-19" transform="translate(1543.39 995.42)">PARIS</text><path class="cls-7" d="M1655.62,940.52h0l0,0a510.27,510.27,0,0,0-90.94-8.09l-2.46-2.84,2.46-2.85c108,0,176.09-32.58,176.15-32.61h-2.45l13,8-13.25,8.31h-3.6l-2-.38a88.72,88.72,0,0,0-9.51,2.4c.48,2.74,3.49,5.48,7.79,7.74,8.72,4.61,40.21,4.13,52,1.64l3.5-.13,7,8-7.9,8h-3.63c-11.78-2.48-42.2-3.09-50.92,1.52-4.07,2.14-7,4.7-7.71,7.29a92.93,92.93,0,0,0,9.46,2.85,20.9,20.9,0,0,0,8-.39h3.63l7.17,8.31-13.25,7.69h-3.62S1709.16,950.24,1655.62,940.52Z"/><path class="cls-7" d="M1698.33,945l.1.05h-.16Z"/><path class="cls-20" d="M1750.54,898.8l1.21-.12c-.12-1.29-12.61-128.1-12.87-175,0-.49-1.22-.52-1.22-.05C1737.91,770.54,1750.41,897.51,1750.54,898.8Z"/><path class="cls-20" d="M1725.62,898.8c.13-1.29,12.64-128.34,12.87-175.21,0-.44-1.2-.38-1.2.11-.26,46.88-12.75,173.69-12.88,175Z"/><polygon class="cls-21" points="1677.18 929.75 1677.18 925.63 1705.11 925.37 1705.11 929.49 1690.88 937.65 1677.18 929.75"/><polygon class="cls-21" points="1724.39 902.5 1724.39 898.37 1751.78 898.37 1751.78 902.5 1738.09 910.4 1724.39 902.5"/><polygon class="cls-21" points="1724.39 957.02 1724.39 952.9 1738.09 949.11 1751.56 953.02 1751.78 957.02 1738.09 964.92 1724.39 957.02"/><polygon class="cls-21" points="1771.08 929.46 1771.08 925.37 1799 925.63 1799 929.75 1785.31 937.65 1771.08 929.46"/><polygon class="cls-22" points="1677.18 925.63 1690.88 917.74 1704.56 925.63 1690.88 933.54 1677.18 925.63"/><polygon class="cls-20" points="1703.54 925.74 1704.14 924.69 1690.88 917.03 1678.09 924.4 1678.7 925.47 1690.88 918.43 1703.54 925.74"/><path class="cls-20" d="M1704,925.9l1.1-.53c-5.63-11.78,14.18-44.08,14.38-44.41l-1-.63a175.54,175.54,0,0,0-9.43,18C1703.2,911.37,1701.52,920.65,1704,925.9Z"/><polygon class="cls-20" points="1711.41 895.76 1726.48 887.06 1725.88 886 1710.81 894.71 1711.41 895.76"/><path class="cls-20" d="M1704.41,916.29c6.68-17.66,13.75-23.31,18.51-24.93a9.73,9.73,0,0,1,7.81.33l.63-1a10.78,10.78,0,0,0-8.83-.44c-3.19,1.08-6.29,3.44-9.21,7-3.65,4.42-7,10.7-10,18.68Z"/><polygon class="cls-20" points="1704.3 899.65 1716.93 885.46 1716.03 884.65 1703.39 898.84 1704.3 899.65"/><rect class="cls-20" x="1710.01" y="886.05" width="1.22" height="9.2" transform="translate(-85.57 188.39) rotate(-6.15)"/><polygon class="cls-22" points="1724.39 898.37 1738.09 890.47 1751.78 898.37 1738.09 906.27 1724.39 898.37"/><path class="cls-20" d="M1738.09,891.88l11.26,6.49-11.26,6.5-11.26-6.5,11.26-6.49Zm0-1.41-13.7,7.9,13.7,7.9,13.69-7.9-13.69-7.9Z"/><polygon class="cls-22" points="1724.39 952.9 1738.09 944.99 1751.25 952.59 1751.34 953.15 1738.09 960.81 1724.39 952.9"/><polygon class="cls-20" points="1750.76 953.01 1751.04 951.76 1738.09 944.29 1725.31 951.66 1725.92 952.72 1738.09 945.7 1750.76 953.01"/><polygon class="cls-22" points="1771.61 925.63 1785.31 917.74 1799 925.63 1785.31 933.54 1771.61 925.63"/><polygon class="cls-23" points="1797.97 925.74 1798.02 924.37 1785.31 917.03 1771.61 924.94 1773.14 925.47 1785.31 918.43 1797.97 925.74"/><path class="cls-20" d="M1772.16,925.9c2.51-5.25.82-14.53-5-27.6a168.9,168.9,0,0,0-9.43-18l-1,.63c.2.33,20,32.63,14.38,44.41Z"/><polygon class="cls-20" points="1764.76 895.76 1765.38 894.71 1750.31 886 1749.71 887.06 1764.76 895.76"/><path class="cls-20" d="M1771.75,916.25l1.17-.34c-4.14-14-9.89-22.55-17.09-25.48a13.2,13.2,0,0,0-11,.21l.59,1.06a12.3,12.3,0,0,1,10-.13C1762.13,894.32,1767.78,902.86,1771.75,916.25Z"/><polygon class="cls-20" points="1771.89 899.65 1772.79 898.84 1760.16 884.65 1759.24 885.46 1771.89 899.65"/><rect class="cls-20" x="1760.96" y="890.05" width="9.2" height="1.22" transform="translate(692.1 2551.43) rotate(-83.89)"/><polygon class="cls-20" points="1738.27 872.36 1759.91 884.87 1759.91 882.44 1738.27 869.94 1738.27 872.36"/><polygon class="cls-24" points="1738.27 872.23 1716.62 884.74 1716.62 882.32 1738.27 869.81 1738.27 872.23"/><polygon class="cls-21" points="1738.09 905.54 1774.77 884.36 1774.77 881.04 1751.14 893.34 1726.4 892.15 1701.4 881.04 1700.64 883.85 1738.09 905.54"/><path class="cls-22" d="M1701.4,881l36.69,21.19L1774.77,881l-36.68-21.19Zm17.41,0,19.32-11.16,19.33,11.16-19.33,11.16Z"/><path class="cls-20" d="M1719.36,881.38c5.16-10.37,16.5-44.53,16.62-44.88l-1.16-.38c-.11.35-11.39,34.35-16.51,44.65Z"/><path class="cls-20" d="M1756.8,881.44l1.07-.67c-5.12-10.3-16.4-44.3-16.51-44.65l-1.16.38C1740.31,836.85,1751.64,871.07,1756.8,881.44Z"/><polygon class="cls-22" points="1738.27 848.76 1758.88 836.85 1758.67 836.13 1738.27 824.35 1717.57 836.3 1717.52 836.78 1738.27 848.76"/><polygon class="cls-22" points="1726.66 801.52 1738.09 794.91 1749.51 801.52 1738.09 808.11 1726.66 801.52"/><path class="cls-20" d="M1741.75,727c.34,62.76,15.29,113.42,28,144.9a332.51,332.51,0,0,0,19.4,40.26c3.86,6.74,6.77,11.13,8.08,13l-10.59,6.12a38.84,38.84,0,0,0-3-14.63C1779,906.25,1773.05,904,1768.9,904c-5.17,0-10.68,3.34-15.5,9.43-7,8.81-8.16,23-3.29,39l-10.81,6.22-.17-230.09Zm1-2-4.88,2.82.18,232.91,13.47-7.79c-4.27-13.43-5.08-28.87,2.79-38.79,4.23-5.35,9.43-9,14.55-9,5,0,9.84,3.41,13.69,12,2.14,4.78,2.86,10.5,2.87,16.2l13.54-7.81s-55.87-77.55-55.87-200.55Z"/><polygon class="cls-20" points="1739.19 920.14 1781.01 896 1780.4 894.95 1738.58 919.1 1739.19 920.14"/><polygon class="cls-21" points="1739.02 848.62 1758.89 837.16 1758.44 836 1738.42 847.57 1739.02 848.62"/><polygon class="cls-20" points="1739.19 838.85 1756.46 828.88 1755.85 827.83 1738.58 837.8 1739.19 838.85"/><polygon class="cls-20" points="1739.19 828.72 1754.29 820 1753.69 818.95 1738.58 827.67 1739.19 828.72"/><polygon class="cls-20" points="1739.19 818.59 1751.92 811.24 1751.3 810.19 1738.58 817.54 1739.19 818.59"/><polygon class="cls-21" points="1739.19 808.46 1749.82 802.32 1749.21 801.26 1738.58 807.4 1739.19 808.46"/><rect class="cls-20" x="1777.76" y="906.73" width="9.19" height="1.21" transform="matrix(0.87, -0.5, 0.5, 0.87, -214.86, 1013.17)"/><polygon class="cls-20" points="1762.31 877.69 1762.92 876.65 1753.72 871.36 1753.11 872.41 1762.31 877.69"/><polygon class="cls-20" points="1765.75 886.6 1766.35 885.56 1757.63 880.52 1756.8 881.44 1765.75 886.6"/><rect class="cls-20" x="1768.33" y="892.99" width="1.22" height="8.94" transform="translate(108.85 1983.14) rotate(-60.08)"/><polygon class="cls-20" points="1778.45 910.12 1779.03 909.04 1769.23 903.66 1768.64 904.72 1778.45 910.12"/><rect class="cls-20" x="1777.51" y="908.67" width="1.22" height="14.81" transform="translate(122.89 2039.07) rotate(-61.41)"/><polygon class="cls-20" points="1785.36 933.57 1785.97 932.51 1771.91 924.4 1771.32 925.47 1785.36 933.57"/><polygon class="cls-20" points="1757.31 865.62 1757.91 864.56 1749.33 859.62 1748.72 860.67 1757.31 865.62"/><polygon class="cls-20" points="1753.02 853.29 1753.62 852.24 1745.04 847.31 1744.43 848.36 1753.02 853.29"/><polygon class="cls-20" points="1767.94 889.07 1775.9 884.47 1775.28 883.42 1767.33 888.01 1767.94 889.07"/><rect class="cls-20" x="1762" y="874.27" width="9.19" height="1.22" transform="translate(-200.79 999.98) rotate(-29.98)"/><polygon class="cls-20" points="1758.37 865.29 1766.32 860.7 1765.71 859.64 1757.76 864.24 1758.37 865.29"/><polygon class="cls-20" points="1753.56 853.13 1761.52 848.53 1760.91 847.48 1752.95 852.07 1753.56 853.13"/><polygon class="cls-20" points="1739.73 905.36 1747.68 900.76 1747.08 899.71 1739.12 904.3 1739.73 905.36"/><polygon class="cls-20" points="1739.85 891.01 1747.81 886.42 1747.2 885.36 1739.25 889.96 1739.85 891.01"/><polygon class="cls-20" points="1739.81 876 1747.76 871.41 1747.16 870.36 1739.19 874.95 1739.81 876"/><rect class="cls-20" x="1738.42" y="857.79" width="9.79" height="1.22" transform="translate(-193.98 1009.64) rotate(-30.68)"/><polygon class="cls-20" points="1784.3 920.14 1792.26 915.54 1791.65 914.49 1783.69 919.1 1784.3 920.14"/><polygon class="cls-20" points="1739.85 932.57 1747.82 927.98 1747.21 926.93 1739.25 931.52 1739.85 932.57"/><polygon class="cls-20" points="1739.15 946.22 1747.77 941.24 1747.63 939.88 1738.55 945.17 1739.15 946.22"/><path class="cls-20" d="M1776.92,908.44h1.44c-3.49-5.77-16.18-28.22-28-66.71l-1.15.36C1761.05,880.71,1773.41,902.64,1776.92,908.44Z"/><rect class="cls-20" x="1746.91" y="843.21" width="1.22" height="84.25"/><polygon class="cls-20" points="1785.59 905.9 1786.06 904.77 1773.13 899.42 1772.66 900.55 1785.59 905.9"/><polygon class="cls-20" points="1779.35 909.51 1781.3 895.57 1780.1 895.39 1778.14 909.34 1779.35 909.51"/><rect class="cls-20" x="1784.46" y="905.4" width="1.21" height="13.97" transform="translate(202.82 2143.4) rotate(-64.96)"/><polygon class="cls-20" points="1785.07 919.52 1786.43 905.41 1785.22 905.27 1783.7 919.37 1785.07 919.52"/><polygon class="cls-20" points="1739.4 945.95 1748.06 927.72 1747.32 926.46 1738.31 945.43 1739.4 945.95"/><polygon class="cls-20" points="1747.44 940.8 1748.29 939.94 1739.98 931.63 1739.13 932.49 1747.44 940.8"/><polygon class="cls-20" points="1740.11 932.3 1748.07 914.89 1746.96 914.38 1738.55 932.87 1740.11 932.3"/><polygon class="cls-20" points="1747.1 927.9 1747.92 927 1739.29 919.16 1738.47 920.07 1747.1 927.9"/><polygon class="cls-20" points="1773.5 900.09 1776.2 884.05 1775 883.85 1772.29 899.88 1773.5 900.09"/><polygon class="cls-20" points="1780.42 895.51 1780.97 894.43 1767.9 888 1767.37 889.09 1780.42 895.51"/><polygon class="cls-20" points="1768.23 888.65 1771.17 872.69 1769.97 872.47 1767.04 888.43 1768.23 888.65"/><polygon class="cls-20" points="1775.31 884.48 1775.87 883.41 1762.89 876.63 1762.33 877.72 1775.31 884.48"/><polygon class="cls-20" points="1763.21 877.29 1766.61 860.29 1765.42 860.05 1762.02 877.05 1763.21 877.29"/><polygon class="cls-20" points="1770.27 873.1 1770.88 872.05 1757.91 864.56 1757.31 865.62 1770.27 873.1"/><polygon class="cls-20" points="1758.65 865.48 1762.48 848.37 1761.44 847.39 1757.47 865.21 1758.65 865.48"/><polygon class="cls-20" points="1766.01 860.7 1766.21 859.41 1753.56 852.07 1752.95 853.13 1766.01 860.7"/><polygon class="cls-20" points="1739.44 919.87 1747.94 900.48 1746.82 899.99 1738.33 919.37 1739.44 919.87"/><polygon class="cls-20" points="1747.06 915.05 1747.96 914.23 1739.34 904.64 1738.43 905.44 1747.06 915.05"/><rect class="cls-20" x="1732.7" y="894.86" width="21" height="1.21" transform="translate(211.09 2117.45) rotate(-65.76)"/><polygon class="cls-20" points="1746.91 900.64 1747.83 899.83 1739.35 890.07 1738.43 890.86 1746.91 900.64"/><rect class="cls-20" x="1732.48" y="880.07" width="21.39" height="1.21" transform="translate(237.26 2124.24) rotate(-66.35)"/><polygon class="cls-20" points="1747.04 886.28 1747.97 885.5 1739.35 875.09 1738.42 875.86 1747.04 886.28"/><rect class="cls-20" x="1732.51" y="865.08" width="21.39" height="1.21" transform="translate(247.14 2110.67) rotate(-66.18)"/><rect class="cls-20" x="1742.57" y="859.31" width="1.21" height="13.16" transform="translate(-143.53 1344.21) rotate(-40.64)"/><path class="cls-20" d="M1748.24,842.56l1.2-.23c-.08-.47-8.56-49.12-8.56-115.08h-1.21C1739.67,793.32,1748.16,842.07,1748.24,842.56Z"/><polygon class="cls-20" points="1749.38 842.73 1756.7 828.64 1755.62 828.08 1748.31 842.17 1749.38 842.73"/><polygon class="cls-20" points="1758.47 836.9 1758.47 835.64 1747.78 832.71 1747.45 833.87 1758.47 836.9"/><polygon class="cls-20" points="1739.62 848.18 1748.14 833.59 1747.1 832.98 1738.57 847.57 1739.62 848.18"/><polygon class="cls-20" points="1748.64 842.48 1749.05 841.34 1739.09 837.76 1738.67 838.9 1748.64 842.48"/><polygon class="cls-20" points="1748.18 833.52 1754.05 820.01 1752.93 819.52 1747.06 833.05 1748.18 833.52"/><rect class="cls-20" x="1750.67" y="820.73" width="1.22" height="10.75" transform="translate(266.61 2069.17) rotate(-65.19)"/><polygon class="cls-20" points="1739.43 838.61 1746.95 824.13 1745.86 823.57 1738.35 838.05 1739.43 838.61"/><polygon class="cls-20" points="1747.31 833.81 1747.92 832.76 1739.19 827.67 1738.58 828.72 1747.31 833.81"/><polygon class="cls-20" points="1746.97 824.08 1752.17 810.94 1751.05 810.49 1745.84 823.63 1746.97 824.08"/><polygon class="cls-20" points="1753.17 820.28 1753.82 819.25 1745.57 813.92 1744.91 814.94 1753.17 820.28"/><polygon class="cls-20" points="1745.82 814.63 1750.09 801.99 1748.94 801.59 1744.67 814.24 1745.82 814.63"/><polygon class="cls-20" points="1751.23 811.2 1751.98 810.23 1744.49 804.38 1743.75 805.34 1751.23 811.2"/><polygon class="cls-20" points="1739.45 818.28 1744.69 805.08 1743.56 804.64 1738.32 817.84 1739.45 818.28"/><polygon class="cls-20" points="1744.81 814.87 1745.68 814.01 1739.32 807.5 1738.44 808.35 1744.81 814.87"/><polygon class="cls-20" points="1746.03 824.34 1746.77 823.37 1739.25 817.58 1738.51 818.54 1746.03 824.34"/><rect class="cls-20" x="1734.49" y="820.7" width="15.16" height="1.22" transform="translate(265.75 2058.18) rotate(-65.2)"/><polygon class="cls-20" points="1757.71 881.51 1762.65 877.44 1761.88 876.51 1756.94 880.57 1757.71 881.51"/><polygon class="cls-20" points="1765.59 886.49 1766.5 885.67 1753.87 871.48 1752.96 872.29 1765.59 886.49"/><rect class="cls-20" x="1755.04" y="857.86" width="1.21" height="21.41" transform="translate(-161.35 1270.81) rotate(-38.17)"/><polygon class="cls-20" points="1753.93 872.2 1758.13 865.4 1757.1 864.76 1752.9 871.57 1753.93 872.2"/><rect class="cls-20" x="1746.81" y="855.76" width="8.66" height="1.22" transform="translate(147.56 1964.7) rotate(-60.71)"/><polygon class="cls-20" points="1757.12 865.45 1758.1 864.72 1745.22 847.47 1744.24 848.2 1757.12 865.45"/><polygon class="cls-20" points="1777.67 909.64 1778.57 908.82 1765.51 894.81 1764.62 895.65 1777.67 909.64"/><polygon class="cls-20" points="1769.4 904.58 1773.28 900.09 1772.36 899.3 1768.48 903.79 1769.4 904.58"/><polygon class="cls-20" points="1783.56 919.71 1784.42 918.85 1769.37 903.76 1768.51 904.62 1783.56 919.71"/><polygon class="cls-20" points="1771.86 913.09 1778.98 909.99 1778.5 908.86 1771.38 911.98 1771.86 913.09"/><polygon class="cls-22" points="1738.27 727.89 1743.13 725.08 1738.27 722.27 1733.39 725.08 1738.27 727.89"/><path class="cls-20" d="M1734.61,727.18l2.44,1.42-.18,230.09-10.8-6.22c4.88-16,3.69-30.19-3.29-39-4.82-6.08-10.33-9.43-15.5-9.43-4.15,0-10.09,2.21-14.81,12.69a39,39,0,0,0-2.94,14.63l-10.6-6.12c1.31-1.94,4.21-6.38,8.09-13.21a341.12,341.12,0,0,0,19.4-40.52,395.76,395.76,0,0,0,28.19-144.33Zm-1.22-2.1c0,121.85-56.21,200.55-56.21,200.55l13.53,7.81c0-5.7.73-11.42,2.88-16.2,3.84-8.57,8.73-12,13.69-12,5.11,0,10.31,3.62,14.55,9,7.87,9.92,6.84,25.25,2.56,38.67l13.7,7.91.18-232.91-4.88-2.82Z"/><polygon class="cls-20" points="1736.99 920.14 1737.6 919.1 1695.78 894.95 1695.17 896 1736.99 920.14"/><polygon class="cls-21" points="1737.15 848.62 1737.77 847.57 1717.51 835.88 1717.32 837.17 1737.15 848.62"/><polygon class="cls-20" points="1736.99 838.85 1737.6 837.8 1720.32 827.83 1719.71 828.88 1736.99 838.85"/><polygon class="cls-20" points="1736.99 828.72 1737.6 827.67 1722.49 818.95 1721.88 820 1736.99 828.72"/><polygon class="cls-20" points="1736.99 818.59 1737.6 817.54 1724.88 810.19 1724.26 811.24 1736.99 818.59"/><rect class="cls-21" x="1731.37" y="798.73" width="1.22" height="12.27" transform="translate(168.65 1901.93) rotate(-59.98)"/><polygon class="cls-20" points="1697.5 910.16 1698.1 909.11 1690.14 904.51 1689.54 905.56 1697.5 910.16"/><polygon class="cls-20" points="1713.87 877.69 1723.07 872.41 1722.46 871.36 1713.26 876.65 1713.87 877.69"/><polygon class="cls-20" points="1710.43 886.6 1719.36 881.38 1718.56 880.52 1709.82 885.56 1710.43 886.6"/><polygon class="cls-20" points="1703.66 900.23 1711.41 895.76 1710.81 894.71 1703.06 899.17 1703.66 900.23"/><polygon class="cls-20" points="1697.73 910.12 1707.53 904.72 1706.95 903.66 1697.14 909.04 1697.73 910.12"/><rect class="cls-20" x="1690.65" y="915.47" width="14.81" height="1.22" transform="translate(-231.33 924.19) rotate(-28.59)"/><polygon class="cls-20" points="1690.81 933.57 1704.87 925.47 1704.26 924.4 1690.21 932.51 1690.81 933.57"/><polygon class="cls-20" points="1718.87 865.62 1727.46 860.67 1726.85 859.62 1718.26 864.56 1718.87 865.62"/><polygon class="cls-20" points="1723.17 853.29 1731.74 848.36 1731.14 847.31 1722.56 852.24 1723.17 853.29"/><polygon class="cls-20" points="1708.24 889.07 1708.85 888.01 1700.89 883.42 1700.28 884.47 1708.24 889.07"/><polygon class="cls-20" points="1713.26 877.69 1713.87 876.65 1705.91 872.05 1705.3 873.1 1713.26 877.69"/><polygon class="cls-20" points="1717.82 865.29 1718.42 864.24 1710.47 859.64 1709.85 860.7 1717.82 865.29"/><polygon class="cls-20" points="1722.62 853.13 1723.22 852.07 1714.81 847.2 1714.66 848.53 1722.62 853.13"/><polygon class="cls-20" points="1736.45 905.36 1737.06 904.3 1729.11 899.71 1728.5 900.76 1736.45 905.36"/><polygon class="cls-20" points="1736.33 891.01 1736.93 889.96 1728.98 885.36 1728.37 886.42 1736.33 891.01"/><polygon class="cls-20" points="1736.37 876 1736.98 874.95 1729.02 870.36 1728.41 871.41 1736.37 876"/><polygon class="cls-20" points="1736.76 861.42 1737.38 860.37 1728.96 855.38 1728.35 856.43 1736.76 861.42"/><polygon class="cls-20" points="1691.88 920.14 1692.49 919.1 1684.53 914.49 1683.92 915.54 1691.88 920.14"/><rect class="cls-20" x="1732.04" y="925.16" width="1.21" height="9.19" transform="translate(58.78 1961.57) rotate(-59.87)"/><polygon class="cls-20" points="1737.03 946.22 1737.63 945.17 1728.25 939.76 1727.88 940.94 1737.03 946.22"/><path class="cls-20" d="M1699.26,908.44c3.51-5.8,15.87-27.73,27.73-66.35l-1.18-.36c-11.81,38.49-24.71,61.32-28.19,67.09Z"/><rect class="cls-20" x="1728.06" y="843.21" width="1.21" height="84.25"/><polygon class="cls-20" points="1690.58 905.9 1703.52 900.55 1703.05 899.42 1690.12 904.77 1690.58 905.9"/><polygon class="cls-20" points="1696.84 909.51 1698.04 909.34 1696.08 895.39 1694.88 895.57 1696.84 909.51"/><polygon class="cls-20" points="1685.04 915.89 1697.69 909.98 1697.17 908.88 1684.53 914.8 1685.04 915.89"/><polygon class="cls-20" points="1691.27 919.52 1692.48 919.37 1690.96 905.27 1689.75 905.41 1691.27 919.52"/><polygon class="cls-20" points="1736.78 945.95 1737.88 945.43 1729.22 927.2 1728.11 927.72 1736.78 945.95"/><polygon class="cls-20" points="1728.74 940.8 1737.7 931.77 1736.43 931.34 1727.88 939.94 1728.74 940.8"/><rect class="cls-20" x="1732.03" y="913.77" width="1.22" height="19.15" transform="translate(-227.12 805.22) rotate(-24.6)"/><polygon class="cls-20" points="1729.08 927.9 1737.7 920.07 1736.88 919.16 1727.59 927.57 1729.08 927.9"/><polygon class="cls-20" points="1702.68 900.09 1703.88 899.88 1701.19 883.85 1699.98 884.05 1702.68 900.09"/><polygon class="cls-20" points="1695.75 895.51 1708.81 889.09 1708.27 888 1695.21 894.43 1695.75 895.51"/><rect class="cls-20" x="1706.47" y="872.45" width="1.21" height="16.23" transform="translate(-131.23 323.67) rotate(-10.43)"/><polygon class="cls-20" points="1700.87 884.48 1713.85 877.72 1713.28 876.63 1700.31 883.41 1700.87 884.48"/><rect class="cls-20" x="1711.25" y="860" width="1.22" height="17.34" transform="translate(-139.32 360.54) rotate(-11.56)"/><polygon class="cls-20" points="1705.92 873.1 1718.87 865.62 1718.26 864.56 1705.3 872.05 1705.92 873.1"/><polygon class="cls-20" points="1717.52 865.48 1718.71 865.21 1714.73 847.39 1713.74 848.53 1717.52 865.48"/><polygon class="cls-20" points="1710.17 860.7 1723.22 853.13 1722.62 852.07 1709.91 859.44 1710.17 860.7"/><polygon class="cls-20" points="1736.74 919.87 1737.85 919.37 1729.36 899.99 1728.24 900.48 1736.74 919.87"/><polygon class="cls-20" points="1729.12 915.05 1737.75 905.44 1736.85 904.64 1728.21 914.23 1729.12 915.05"/><rect class="cls-20" x="1732.37" y="884.96" width="1.22" height="21" transform="translate(-214.77 789.01) rotate(-24.2)"/><rect class="cls-20" x="1726.58" y="894.74" width="12.95" height="1.21" transform="translate(-79.57 1616.13) rotate(-49.01)"/><rect class="cls-20" x="1732.4" y="869.98" width="1.22" height="21.38" transform="translate(-207.26 761.25) rotate(-23.42)"/><rect class="cls-20" x="1726.22" y="880.07" width="13.52" height="1.22" transform="translate(-50.13 1654.86) rotate(-50.41)"/><rect class="cls-20" x="1732.37" y="854.99" width="1.22" height="21.39" transform="translate(-201.92 771.91) rotate(-23.77)"/><polygon class="cls-20" points="1729.17 871.28 1737.76 861.29 1736.83 860.5 1728.26 870.49 1729.17 871.28"/><path class="cls-20" d="M1727.94,842.53c.09-.69,8.7-69,8.7-115.28h-1.22c0,46.18-8.6,114.44-8.69,115.12Z"/><rect class="cls-20" x="1723.07" y="827.46" width="1.22" height="15.88" transform="translate(-190.99 890.46) rotate(-27.5)"/><polygon class="cls-20" points="1717.7 836.9 1728.72 833.87 1728.41 832.71 1717.67 835.65 1717.7 836.9"/><polygon class="cls-20" points="1736.56 848.18 1737.6 847.57 1729.08 832.98 1728.04 833.59 1736.56 848.18"/><polygon class="cls-20" points="1727.54 842.48 1737.5 838.9 1737.09 837.76 1727.13 841.34 1727.54 842.48"/><polygon class="cls-20" points="1728 833.52 1729.12 833.05 1723.25 819.52 1722.13 820.01 1728 833.52"/><rect class="cls-20" x="1719.52" y="825.5" width="10.74" height="1.22" transform="translate(-187.42 798.71) rotate(-24.77)"/><rect class="cls-20" x="1732.93" y="822.93" width="1.22" height="16.31" transform="translate(-187.91 893.62) rotate(-27.48)"/><polygon class="cls-20" points="1728.87 833.81 1737.6 828.72 1736.99 827.67 1728.26 832.76 1728.87 833.81"/><rect class="cls-20" x="1726.56" y="810.21" width="1.22" height="14.13" transform="translate(-179.97 699.4) rotate(-21.79)"/><polygon class="cls-20" points="1723.01 820.28 1731.27 814.94 1730.6 813.92 1722.35 819.25 1723.01 820.28"/><polygon class="cls-20" points="1730.36 814.63 1731.51 814.24 1727.24 801.59 1726.09 801.99 1730.36 814.63"/><polygon class="cls-20" points="1724.95 811.2 1732.43 805.34 1731.68 804.38 1724.2 810.23 1724.95 811.2"/><polygon class="cls-20" points="1736.73 818.28 1737.86 817.84 1732.62 804.64 1731.49 805.08 1736.73 818.28"/><polygon class="cls-20" points="1731.37 814.87 1737.72 808.35 1736.86 807.5 1730.5 814.01 1731.37 814.87"/><polygon class="cls-20" points="1730.15 824.34 1737.66 818.54 1736.93 817.58 1729.41 823.37 1730.15 824.34"/><polygon class="cls-20" points="1736.74 828.45 1737.85 827.94 1731.49 814.18 1730.38 814.69 1736.74 828.45"/><rect class="cls-20" x="1715.77" y="875.81" width="1.21" height="6.4" transform="translate(-53.1 1645.54) rotate(-50.54)"/><polygon class="cls-20" points="1710.58 886.49 1723.22 872.29 1722.31 871.48 1709.67 885.67 1710.58 886.49"/><polygon class="cls-20" points="1714.39 877.35 1727.63 860.53 1726.67 859.77 1713.44 876.6 1714.39 877.35"/><polygon class="cls-20" points="1722.25 872.2 1723.28 871.57 1719.08 864.76 1718.05 865.4 1722.25 872.2"/><polygon class="cls-20" points="1726.63 860.44 1727.68 859.85 1723.45 852.29 1722.39 852.89 1726.63 860.44"/><rect class="cls-20" x="1714.24" y="855.85" width="21.53" height="1.22" transform="translate(6.56 1726) rotate(-53.24)"/><polygon class="cls-20" points="1698.5 909.64 1711.56 895.65 1710.67 894.81 1697.62 908.82 1698.5 909.64"/><rect class="cls-20" x="1704.69" y="898.98" width="1.21" height="5.93" transform="translate(-175.14 1332.61) rotate(-40.77)"/><polygon class="cls-20" points="1692.61 919.71 1707.67 904.62 1706.81 903.76 1691.75 918.85 1692.61 919.71"/><polygon class="cls-20" points="1704.32 913.09 1704.81 911.98 1697.68 908.86 1697.2 909.99 1704.32 913.09"/><line class="cls-25" x1="1738.26" y1="725.08" x2="1738.26" y2="684.62"/><path class="cls-26" d="M503.28,409.19s1.78-1.05,5.25-2.89"/><path class="cls-27" d="M519.25,400.89c59.11-28.5,278.19-115.24,587.14-13.83C1435.27,495,1585.07,856.77,1610.85,925.39"/><path class="cls-26" d="M1612.93,931c1.34,3.69,2,5.65,2,5.65"/><path class="cls-28" d="M785.21,633.18l21-7.36,1-.38,73.44-25.71,1-.36,82.55-28.91,1-.36,47.92-16.79-17.56-10.09a188.07,188.07,0,0,1-26.23-18.45c-23.23-19.27-43.61-43.87-60.27-66.38l-87.81,7.26a4.1,4.1,0,0,1-2.42-.56l-20.05-11.75a.7.7,0,0,1,.14-1.25l11.71-3.89,1.26-.42,72.66-24.18c-3.35-4.9-6.39-9.33-9.09-13.12a4.58,4.58,0,0,1,5.21-6.94l2.63,1.18.59.82c3,1.34,6.19,2.84,9.67,4.47L874.78,324l8,4.33L884,329l13.17,7.16a5.86,5.86,0,0,1,2.55,2.81l23.6,55.28,25.13-25.8-.47-.27.71-.74.47.28,1.51-1.55.72-.74,4.35-4.45a1.65,1.65,0,0,1,2-.26l20,11.77a1.62,1.62,0,0,1,.7,2l-24.63,64.94c19.59,9.79,39,19.63,54.23,27.36,17.49,8.89,29.36,15,29.36,15s22.28,12.55,52,29.36l43.49-40.26.65-.61,54.93-50.87.65-.6,44.16-40.9.65-.61,8.84-8.18a1.37,1.37,0,0,1,1.65-.17L1264,381a3.17,3.17,0,0,1,1.19,4l-63,133.87,10.83,6.91s7.1,5.71,8.64,8.38h0c2.24,2.3,2.75,6.85,1,12.1-2.58,7.57-9,13.71-14.28,13.71a5.87,5.87,0,0,1-1.81-.27h0a28.67,28.67,0,0,1-13.23-4.18c-1.78-1.17-4-2.74-6.26-4.5l-5.82,12.35c28.42,16.35,50.87,29.49,55,32.57,12.8,9.47,9.14,11.47,20,28.59a63.21,63.21,0,0,1,8.85,21.72l.09,0a41,41,0,0,1,.71,7.48,13.73,13.73,0,0,1-.18,2.92c-.85,2.89-7.65,7.15-32.41,8s-29.84-2.66-43.2-9.83c-6.62-3.55-37.5-21.29-75.34-43.09l-83.26,9.66,7.77,5s7.1,5.72,8.64,8.39h0c2.23,2.31,2.74,6.86,1,12.1-2.59,7.57-9,13.71-14.28,13.71a5.82,5.82,0,0,1-1.81-.27h0a28.56,28.56,0,0,1-13.23-4.17c-6.82-4.49-19.54-14.8-22-19.12a9.3,9.3,0,0,1-1-3.09,95.33,95.33,0,0,1-9.24-7.36L809.44,647.14a10.08,10.08,0,0,1-6.29-1.34L785,635.05A1,1,0,0,1,785.21,633.18Z"/><path class="cls-29" d="M1181.43,341.48a19.38,19.38,0,0,1-8.69-2.63c-4.48-2.83-12.83-9.32-14.47-12.05s-.87-8.59,3-10.37,14-2.72,14-2.72l10.44,6.39s4.67,3.6,5.68,5.28S1181.43,341.48,1181.43,341.48Z"/><path class="cls-30" d="M1206.48,363.52a28.67,28.67,0,0,1-13.23-4.18c-6.82-4.49-19.53-14.8-22-19.12s-1.33-13.63,4.49-16.45,21.36-4.33,21.36-4.33l15.9,10.14s7.1,5.72,8.64,8.39S1206.48,363.52,1206.48,363.52Z"/><path class="cls-31" d="M1206.48,363.52a28.67,28.67,0,0,1-13.23-4.18c-6.82-4.49-19.53-14.8-22-19.12s-1.33-13.63,4.49-16.45,21.36-4.33,21.36-4.33l15.9,10.14s7.1,5.72,8.64,8.39S1206.48,363.52,1206.48,363.52Z"/><path class="cls-32" d="M1222.57,350.07c-2.58,7.58-9,13.72-14.28,13.72s-7.5-6.14-4.92-13.72,9-13.71,14.28-13.71S1225.15,342.5,1222.57,350.07Z"/><path class="cls-33" d="M1220.74,350.07c-2.09,6.12-7.26,11.09-11.55,11.09a4.42,4.42,0,0,1-4.19-2.79c-.93-2-.93-5,.2-8.3,2.1-6.13,7.26-11.09,11.55-11.09S1222.8,344,1220.74,350.07Z"/><path class="cls-29" d="M1217.73,348.31c-2,5.77-6.82,10.45-10.87,10.45a4.38,4.38,0,0,1-1.86-.39c-.93-2-.93-5,.2-8.3,2.1-6.13,7.26-11.09,11.55-11.09C1218.69,340.71,1219.13,344.22,1217.73,348.31Z"/><path class="cls-32" d="M1207.63,350.66c-1.54-1.42,2.08-7.2,4.1-5.9a3.73,3.73,0,0,1,1.26,5.06C1212,351.65,1209.12,351.55,1207.63,350.66Z"/><path class="cls-32" d="M1265.19,188.81l-90.92,193-67.19-44-.73-.48-24.2-15.87,50.64-46.89.65-.61,54.93-50.86.65-.6,44.16-40.9.65-.61,8.84-8.18a1.34,1.34,0,0,1,1.65-.17L1264,184.78A3.17,3.17,0,0,1,1265.19,188.81Z"/><path class="cls-31" d="M1262,187.56l-9.24-5.71c-56.73,40.73-91.51,100.79-109.61,175.54l29.69,19.46Z"/><path class="cls-34" d="M1239.39,184.42l-5.56-3.43-.65.61,5.77,3.55a2.7,2.7,0,0,1,1,3.42l-38,42.33-13-8.4-.65.6,13,8.45-49.12,54.64L1133.44,274l-.65.61,18.93,12.27-45.37,50.49.73.48,45.37-50.5.56-.64,49.1-54.65.6-.64,38-42.28A3.57,3.57,0,0,0,1239.39,184.42Z"/><path class="cls-31" d="M978.39,178.17,953.27,244.4,919.6,229.78l-.94-.4-18.25-7.92,50.21-51.57.72-.74,4.35-4.44a1.65,1.65,0,0,1,2-.26l20,11.77A1.6,1.6,0,0,1,978.39,178.17Z"/><path class="cls-34" d="M956.48,175.79l-7.84-4.63-.71.74,8,4.75a1.1,1.1,0,0,1,.49,1.3L916,231.39l.94.4,40.39-53.3A2.12,2.12,0,0,0,956.48,175.79Z"/><path class="cls-29" d="M1007.64,442a19.41,19.41,0,0,1-8.7-2.63c-4.47-2.83-12.83-9.32-14.46-12s-.88-8.59,2.94-10.37,14-2.73,14-2.73l10.44,6.39s4.66,3.6,5.67,5.29S1007.64,442,1007.64,442Z"/><path class="cls-30" d="M1032.69,464a28.64,28.64,0,0,1-13.23-4.18c-6.82-4.48-19.54-14.79-22-19.11s-1.33-13.63,4.49-16.46,21.36-4.32,21.36-4.32l15.9,10.14s7.1,5.71,8.64,8.38S1032.69,464,1032.69,464Z"/><path class="cls-31" d="M1032.69,464a28.64,28.64,0,0,1-13.23-4.18c-6.82-4.48-19.54-14.79-22-19.11s-1.33-13.63,4.49-16.46,21.36-4.32,21.36-4.32l15.9,10.14s7.1,5.71,8.64,8.38S1032.69,464,1032.69,464Z"/><path class="cls-32" d="M1048.78,450.59c-2.59,7.57-9,13.71-14.28,13.71s-7.51-6.14-4.92-13.71,9-13.72,14.27-13.72S1051.36,443,1048.78,450.59Z"/><path class="cls-33" d="M1047,450.58c-2.1,6.13-7.26,11.09-11.55,11.09a4.41,4.41,0,0,1-4.19-2.79c-.94-2-.94-5,.2-8.3,2.09-6.12,7.26-11.09,11.55-11.09S1049,444.52,1047,450.58Z"/><path class="cls-29" d="M1043.94,448.83c-2,5.76-6.83,10.45-10.88,10.45a4.23,4.23,0,0,1-1.85-.4c-.94-2-.94-5,.2-8.3,2.09-6.12,7.26-11.09,11.55-11.09C1044.89,441.23,1045.33,444.74,1043.94,448.83Z"/><path class="cls-32" d="M1033.83,451.18c-1.53-1.43,2.08-7.2,4.11-5.9a3.73,3.73,0,0,1,1.26,5.06C1038.2,452.17,1035.33,452.06,1033.83,451.18Z"/><path class="cls-32" d="M977.28,285.24c7.47-8.54,18.68-13.92,30.71-14.76-36.94-18.79-99-50.05-127.19-62.64a4.28,4.28,0,0,0-5.21,6.4c18,25.31,51.13,78.83,93.87,114.29C964.56,313.13,966,296.48,977.28,285.24Z"/><path class="cls-32" d="M1037.35,285.47s-11.87-6.1-29.36-15c-12,.84-23.24,6.22-30.71,14.76-11.24,11.24-12.72,27.89-7.82,43.29A188,188,0,0,0,995.69,347c29.85,17.14,67.86,39.06,102.42,59-9.41-22.7-6.34-48.43,17.91-64.12a29.8,29.8,0,0,1,14-3.87C1082.62,311,1037.35,285.47,1037.35,285.47Z"/><path class="cls-32" d="M1256.15,428.35c-10.81-17.13-7.15-19.12-20-28.6-6.49-4.8-57.45-34.07-106.16-61.79a29.8,29.8,0,0,0-14,3.87c-24.25,15.69-27.32,41.42-17.91,64.12,45.1,26,84.34,48.57,91.9,52.63,13.36,7.17,18.43,10.66,43.2,9.83s31.56-5.09,32.41-8C1266,459.3,1267,445.47,1256.15,428.35Z"/><path class="cls-35" d="M1235.56,455.05c-24.77.83-29.84-2.66-43.19-9.83s-108.11-62.06-176.93-101.57c-51.27-29.42-106.94-100.7-132-135.17l-2.63-1.19a4.28,4.28,0,0,0-5.21,6.4c21.53,30.27,64.7,100.94,120.1,132.73,68.82,39.51,181,104.44,194.32,111.61s18.43,10.66,43.2,9.83,31.56-5.09,32.41-8c.17-.56.49-4.23-.53-9.86C1261.15,452.28,1252.62,454.48,1235.56,455.05Z"/><path class="cls-33" d="M1184.94,447.57a7.33,7.33,0,0,1-3.65-1.11,17.28,17.28,0,0,1-7.81-13.51V421.76c0-2.54.9-4.45,2.53-5.39s3.74-.76,5.93.51a17.26,17.26,0,0,1,7.81,13.52v11.18c0,2.54-.9,4.46-2.53,5.4A4.53,4.53,0,0,1,1184.94,447.57Z"/><path class="cls-31" d="M1252.77,430.48a123.47,123.47,0,0,1-7.69-14c-2.72-5.65-3.84-8-11.26-13.48-10-7.38-78-45.35-198.3-113.94-1.15-.59-115.32-59.25-156.5-77.58a.4.4,0,0,0-.22.21c0,.09-.06.12.05.27,22.17,31.2,302.62,181.88,336.49,207,7.41,5.49,8.67,6.15,11.38,11.81,1.65,3.42,4.88,8.48,8.65,15,4.86,8.36,13.26,13.19,20.86,13.41a5.37,5.37,0,0,0,5.36-6.24A60.15,60.15,0,0,0,1252.77,430.48Z"/><path class="cls-32" d="M1121.52,414.69,809.44,450.9a10.15,10.15,0,0,1-6.29-1.34L785,438.81a1,1,0,0,1,.17-1.87l21-7.37,1-.37,73.44-25.71,1-.36,82.55-28.91,1-.36L1034,349.81s12.41,6.33,28.07,14.65c.36.2.72.39,1.09.57,23.27,12.4,53.1,28.93,60.12,35.8C1136.86,414.15,1121.52,414.69,1121.52,414.69Z"/><path class="cls-31" d="M1094.65,386.26c-89.85-7.26-189.56,18.95-293.17,58.35l3.4,2a6.77,6.77,0,0,0,3.42.94,6.3,6.3,0,0,0,.75-.05l312.21-36.22c1.79-.06,4-.78,4.2-1.33.13-.34-.26-2.47-4.59-6.71C1117.7,400.16,1108.64,394.31,1094.65,386.26Z"/><path class="cls-36" d="M1215.34,432.34l3.83,6.36s19.52,4.44,28.33-6.2c5.24-6.33.58-14.6.58-14.6l-3.07-5.39s.33,8.27-3.49,12.6C1232.25,435.58,1215.34,432.34,1215.34,432.34Z"/><path class="cls-36" d="M1215.34,432.34l3.83,6.36s19.52,4.44,28.33-6.2c5.24-6.33.58-14.6.58-14.6l-3.07-5.39s.33,8.27-3.49,12.6C1232.25,435.58,1215.34,432.34,1215.34,432.34Z"/><path class="cls-32" d="M924.65,260.87l-103.27,8.54a4.1,4.1,0,0,1-2.42-.56L798.91,257.1a.71.71,0,0,1,.14-1.26L810.76,252l1.26-.41,77.88-25.92,11.77,9,1,.76,25.16,19.31C929.79,260,924.65,260.87,924.65,260.87Z"/><path class="cls-31" d="M924.65,260.87l-103.27,8.54a4.1,4.1,0,0,1-2.42-.56L798.91,257.1a.71.71,0,0,1,.14-1.26L810.76,252l1.26-.41,77.88-25.92,11.77,9,1,.76,25.16,19.31C929.79,260,924.65,260.87,924.65,260.87Z"/><path class="cls-34" d="M901.67,234.66l-80.33,21.56a3.67,3.67,0,0,1-2.14-.48l-7.18-4.2-1.26.41,7.94,4.65a4.45,4.45,0,0,0,2.34.62,3.85,3.85,0,0,0,.48,0l81.12-21.78Z"/><polygon class="cls-31" points="882.74 132.05 874.78 127.72 894.73 218.48 909.39 227.52 909.91 227.84 883.3 132.36 882.74 132.05"/><path class="cls-32" d="M940.94,239.37,899.67,142.7a5.77,5.77,0,0,0-2.55-2.81L884,132.72l-.65-.36,26.61,95.49.75.47,23.56,14.52a5.66,5.66,0,0,0,6.72.74C942.8,242.48,940.94,239.37,940.94,239.37Z"/><polygon class="cls-34" points="910.66 228.32 909.39 227.52 882.74 132.05 883.95 132.72 910.66 228.32"/><path class="cls-34" d="M1062,364.46l-76.93,22.22-19.78-12.82-1,.36L984,387l-88,25.4-14.3-9.28-1,.36L895,412.74,819.92,434.4a9.68,9.68,0,0,1-6-1.27l-6.62-3.93-1,.37,7.22,4.29a10.52,10.52,0,0,0,5.36,1.46,10.66,10.66,0,0,0,1.26-.08l243-70.21C1062.76,364.85,1062.4,364.66,1062,364.46Z"/><path class="cls-33" d="M1102.05,386.18a2.8,2.8,0,0,1-1.39-.43,6.55,6.55,0,0,1-3-5.14v-4.26a2,2,0,0,1,3.22-1.86,6.59,6.59,0,0,1,3,5.15v4.25a2.24,2.24,0,0,1-1,2.06A1.74,1.74,0,0,1,1102.05,386.18Z"/><path class="cls-33" d="M1116.67,394.62a2.77,2.77,0,0,1-1.38-.42,6.57,6.57,0,0,1-3-5.15V384.8a2,2,0,0,1,3.22-1.86,6.58,6.58,0,0,1,3,5.14v4.26a2.19,2.19,0,0,1-1,2.05A1.62,1.62,0,0,1,1116.67,394.62Z"/><path class="cls-33" d="M1131.3,403.07a2.84,2.84,0,0,1-1.39-.42,6.61,6.61,0,0,1-3-5.15v-4.26a2,2,0,0,1,3.22-1.86,6.59,6.59,0,0,1,3,5.15v4.26a2.23,2.23,0,0,1-1,2A1.71,1.71,0,0,1,1131.3,403.07Z"/><path class="cls-33" d="M1145.93,411.51a2.84,2.84,0,0,1-1.39-.42,6.55,6.55,0,0,1-3-5.14v-4.26a2,2,0,0,1,3.22-1.86,6.56,6.56,0,0,1,3,5.15v4.25a2.24,2.24,0,0,1-1,2.06A1.71,1.71,0,0,1,1145.93,411.51Z"/><path class="cls-33" d="M1160.56,420a2.81,2.81,0,0,1-1.39-.42,6.59,6.59,0,0,1-3-5.15v-4.26a2,2,0,0,1,3.22-1.86,6.59,6.59,0,0,1,3,5.15v4.26a2.23,2.23,0,0,1-1,2.05A1.74,1.74,0,0,1,1160.56,420Z"/><g class="cls-1"><path class="cls-13" d="M520.48,305.59l-11.1-6.45c5.08,2.95,8.24,9.24,8.26,18.18.05,18-12.59,39.89-28.25,48.93l11.11,6.45c15.65-9,28.3-30.94,28.25-48.93C528.72,314.83,525.57,308.55,520.48,305.59Z"/><path class="cls-13" d="M469.23,368.22l11.1,6.45c5.15,3,12.29,2.58,20.17-2l-11.11-6.45C481.52,370.79,474.38,371.22,469.23,368.22Z"/><path class="cls-13" d="M483,411.13l11.11,6.46c-8.68-5-21.42-15.43-29-35.36L454,375.78C461.55,395.71,474.28,406.09,483,411.13Z"/><path class="cls-13" d="M528.79,291.28l-11.1-6.45c-7.29-4.24-17.38-3.64-28.52,2.79l11.1,6.46C511.41,287.64,521.51,287.05,528.79,291.28Z"/><path class="cls-13" d="M500.27,294.08l-11.1-6.46c-22.14,12.78-40,43.76-39.95,69.2,0,7.84,1.75,14.24,4.77,19l11.11,6.45c-3-4.72-4.75-11.12-4.78-19C460.25,337.84,478.14,306.86,500.27,294.08Z"/><path class="cls-14" d="M540.49,317a68.85,68.85,0,0,1-3.16,19.94c-4.09,18.88-13.34,49.55-34.05,84.87-1.31-.4-26.23-8-38.18-39.57-3-4.72-4.75-11.12-4.78-19-.07-25.43,17.82-56.41,39.95-69.19S540.41,291.55,540.49,317Zm-40,55.71c15.65-9,28.3-30.94,28.25-48.93S516,298.53,500.31,307.56s-28.3,30.95-28.25,48.93,12.78,25.25,28.44,16.21Z"/></g><g class="cls-1"><path class="cls-37" d="M1649.8,820l-12.47-7.25c5.71,3.32,9.26,10.39,9.29,20.42.05,20.2-14.15,44.8-31.73,55l12.47,7.25c17.58-10.15,31.78-34.75,31.73-55C1659.06,830.35,1655.51,823.29,1649.8,820Z"/><path class="cls-37" d="M1592.24,890.31l12.47,7.25c5.79,3.36,13.8,2.88,22.65-2.22l-12.47-7.25C1606,893.2,1598,893.67,1592.24,890.31Z"/><path class="cls-37" d="M1607.67,938.5l12.47,7.25c-9.75-5.67-24.05-17.33-32.54-39.7l-12.47-7.25C1583.62,921.18,1597.92,932.84,1607.67,938.5Z"/><path class="cls-37" d="M1659.14,803.9l-12.47-7.24c-8.19-4.76-19.52-4.09-32,3.13l12.47,7.25C1639.62,799.82,1651,799.15,1659.14,803.9Z"/><path class="cls-37" d="M1627.11,807l-12.47-7.25c-24.86,14.36-45,49.15-44.87,77.71,0,8.81,2,16,5.36,21.3l12.47,7.25c-3.4-5.31-5.33-12.5-5.36-21.3C1582.16,856.19,1602.25,821.39,1627.11,807Z"/><path class="cls-38" d="M1672.27,832.77a76.69,76.69,0,0,1-3.55,22.39c-4.59,21.21-15,55.66-38.23,95.32-1.48-.45-29.46-9-42.89-44.43-3.4-5.31-5.33-12.5-5.36-21.3-.08-28.56,20-63.36,44.87-77.71S1672.19,804.21,1672.27,832.77Zm-44.91,62.57c17.58-10.15,31.78-34.75,31.73-55s-14.36-28.35-31.94-18.2-31.78,34.75-31.72,54.95,14.35,28.35,31.93,18.2Z"/></g><text class="cls-39" transform="translate(361.21 507.73)">(51.4679946,-0.4599165) </text><text class="cls-40" transform="translate(1387.46 512.01)">d = 346.4187 km</text><text class="cls-39" transform="translate(1488.7 1034.71)">(49.0078632,2.5481912)</text><path class="cls-6" d="M1920,0V490c-35.78,1.56-73.34-2.82-103.53,15.33-11.6,7-22.53,17.36-36.06,17.23-17.58-.17-29.81-18.46-32.71-35.79s.16-35.3-3.26-52.54c-7.42-37.35-46.94-63.74-84.92-60.87-17.71,1.33-36.27,7.84-52.6.86-12.28-5.25-20.26-17-29.75-26.37-52-51.48-139.48-28.58-209.63-49.42-9.15-2.72-19-7-22.76-15.8-5.13-11.83,4-25.88,15.92-30.91s25.35-3.64,38.2-2.53c70.18,6,149.95-3.75,194-58.68,27-33.64,39.07-82.28,77.87-101.14,20.72-10.08,45-9.17,67.09-15.78,28-8.39,50.33-28.19,70.26-48.77,8-8.29,16-16.59,24-24.86Z"/></g></g></svg>